<svg width="193" height="173" viewBox="0 0 193 173" fill="none" xmlns="http://www.w3.org/2000/svg">
<path d="M2.40576 8.85551C1.98109 8.85551 1.59109 8.75584 1.23576 8.55651C0.880423 8.34851 0.594423 8.07118 0.377756 7.72451C0.161089 7.37784 0.0527559 6.98784 0.0527559 6.55451C0.0527559 6.15584 0.152423 5.78318 0.351756 5.43651C0.559756 5.08118 0.841423 4.79518 1.19676 4.57851C1.55209 4.35318 1.95509 4.24051 2.40576 4.24051C2.82176 4.24051 3.20742 4.34018 3.56276 4.53951C3.92676 4.73884 4.21709 5.01618 4.43376 5.37151C4.65042 5.71818 4.75876 6.11251 4.75876 6.55451C4.75876 6.97918 4.65042 7.36484 4.43376 7.71151C4.22576 8.05818 3.94409 8.33551 3.58876 8.54351C3.23342 8.75151 2.83909 8.85551 2.40576 8.85551ZM10.287 9.99951V0.834511H13.381C14.863 0.834511 16.007 1.22884 16.813 2.01751C17.619 2.79751 18.022 3.92851 18.022 5.41051C18.022 6.89251 17.619 8.02784 16.813 8.81651C16.007 9.60518 14.863 9.99951 13.381 9.99951H10.287ZM11.353 9.08951H13.303C15.695 9.08951 16.891 7.86318 16.891 5.41051C16.891 2.96651 15.695 1.74451 13.303 1.74451H11.353V9.08951ZM19.6624 2.10851V0.925512H20.9624V2.10851H19.6624ZM19.7924 9.99951V3.68151H20.8454V9.99951H19.7924ZM24.9459 10.1165C24.4519 10.1165 23.9839 10.0472 23.5419 9.90851C23.0999 9.76985 22.7359 9.57485 22.4499 9.32351L22.7879 8.58251C23.0999 8.83384 23.4423 9.02018 23.8149 9.14151C24.1963 9.25418 24.5819 9.31051 24.9719 9.31051C25.4659 9.31051 25.8386 9.21951 26.0899 9.03751C26.3413 8.85551 26.4669 8.60851 26.4669 8.29651C26.4669 8.05384 26.3846 7.86318 26.2199 7.72451C26.0553 7.57718 25.7953 7.46451 25.4399 7.38651L24.2569 7.12651C23.1823 6.89251 22.6449 6.33784 22.6449 5.46251C22.6449 4.89051 22.8703 4.43118 23.3209 4.08451C23.7803 3.73784 24.3783 3.56451 25.1149 3.56451C25.5483 3.56451 25.9599 3.63384 26.3499 3.77251C26.7486 3.90251 27.0779 4.09751 27.3379 4.35751L26.9869 5.09851C26.7356 4.86451 26.4409 4.68684 26.1029 4.56551C25.7736 4.43551 25.4443 4.37051 25.1149 4.37051C24.6296 4.37051 24.2613 4.46584 24.0099 4.65651C23.7586 4.84718 23.6329 5.09851 23.6329 5.41051C23.6329 5.89584 23.9536 6.20784 24.5949 6.34651L25.7779 6.59351C26.3326 6.71484 26.7529 6.90984 27.0389 7.17851C27.3249 7.43851 27.4679 7.79384 27.4679 8.24451C27.4679 8.82518 27.2383 9.28451 26.7789 9.62251C26.3196 9.95185 25.7086 10.1165 24.9459 10.1165ZM29.0987 9.99951V3.68151H30.1257V4.74751C30.3164 4.36618 30.5807 4.07584 30.9187 3.87651C31.2567 3.66851 31.6511 3.56451 32.1017 3.56451C33.0897 3.56451 33.7224 3.99351 33.9997 4.85151C34.1904 4.45284 34.4721 4.14084 34.8447 3.91551C35.2174 3.68151 35.6464 3.56451 36.1317 3.56451C37.5357 3.56451 38.2377 4.39651 38.2377 6.06051V9.99951H37.1847V6.11251C37.1847 5.53184 37.0807 5.10718 36.8727 4.83851C36.6734 4.56118 36.3397 4.42251 35.8717 4.42251C35.3604 4.42251 34.9531 4.60451 34.6497 4.96851C34.3464 5.33251 34.1947 5.81784 34.1947 6.42451V9.99951H33.1417V6.11251C33.1417 5.53184 33.0377 5.10718 32.8297 4.83851C32.6304 4.56118 32.2967 4.42251 31.8287 4.42251C31.3087 4.42251 30.8971 4.60451 30.5937 4.96851C30.2991 5.33251 30.1517 5.81784 30.1517 6.42451V9.99951H29.0987ZM42.1955 10.1165C41.7622 10.1165 41.3722 10.0342 41.0255 9.86951C40.6875 9.69618 40.4188 9.46218 40.2195 9.16751C40.0202 8.87284 39.9205 8.54351 39.9205 8.17951C39.9205 7.72018 40.0375 7.35618 40.2715 7.08751C40.5142 6.81884 40.9085 6.62818 41.4545 6.51551C42.0092 6.39418 42.7632 6.33351 43.7165 6.33351H44.1325V5.93051C44.1325 5.39318 44.0198 5.00751 43.7945 4.77351C43.5778 4.53084 43.2268 4.40951 42.7415 4.40951C42.3602 4.40951 41.9918 4.46584 41.6365 4.57851C41.2812 4.68251 40.9172 4.85584 40.5445 5.09851L40.1805 4.33151C40.5098 4.09751 40.9085 3.91118 41.3765 3.77251C41.8532 3.63384 42.3082 3.56451 42.7415 3.56451C43.5562 3.56451 44.1585 3.76384 44.5485 4.16251C44.9472 4.56118 45.1465 5.18084 45.1465 6.02151V9.99951H44.1585V8.90751C43.9938 9.28018 43.7382 9.57485 43.3915 9.79151C43.0535 10.0082 42.6548 10.1165 42.1955 10.1165ZM42.3645 9.32351C42.8845 9.32351 43.3092 9.14585 43.6385 8.79051C43.9678 8.42651 44.1325 7.96718 44.1325 7.41251V7.02251H43.7295C43.0275 7.02251 42.4728 7.05718 42.0655 7.12651C41.6668 7.18718 41.3852 7.29984 41.2205 7.46451C41.0645 7.62051 40.9865 7.83718 40.9865 8.11451C40.9865 8.46984 41.1078 8.76018 41.3505 8.98551C41.6018 9.21085 41.9398 9.32351 42.3645 9.32351ZM47.1001 9.99951V3.68151H48.1271V4.76051C48.3351 4.36184 48.6297 4.06284 49.0111 3.86351C49.3924 3.66418 49.8214 3.56451 50.2981 3.56451C51.7974 3.56451 52.5471 4.39651 52.5471 6.06051V9.99951H51.4941V6.12551C51.4941 5.53618 51.3771 5.10718 51.1431 4.83851C50.9177 4.56118 50.5537 4.42251 50.0511 4.42251C49.4704 4.42251 49.0067 4.60451 48.6601 4.96851C48.3221 5.32384 48.1531 5.80051 48.1531 6.39851V9.99951H47.1001ZM57.0237 10.1165C56.2784 10.1165 55.7194 9.92151 55.3467 9.53151C54.9741 9.13285 54.7877 8.56084 54.7877 7.81551V4.50051H53.5527V3.68151H54.7877V1.74451H55.8407V3.68151H57.8427V4.50051H55.8407V7.71151C55.8407 8.20551 55.9447 8.58251 56.1527 8.84251C56.3607 9.09385 56.6987 9.21951 57.1667 9.21951C57.3054 9.21951 57.4441 9.20218 57.5827 9.16751C57.7214 9.13285 57.8471 9.09818 57.9597 9.06351L58.1417 9.86951C58.0291 9.93018 57.8644 9.98651 57.6477 10.0385C57.4311 10.0905 57.2231 10.1165 57.0237 10.1165ZM60.9707 10.1165C60.3293 10.1165 59.844 9.93018 59.5147 9.55751C59.194 9.17618 59.0337 8.62584 59.0337 7.90651V0.834511H60.0867V7.82851C60.0867 8.75584 60.455 9.21951 61.1917 9.21951C61.4083 9.21951 61.6033 9.19351 61.7767 9.14151L61.7507 10.0255C61.482 10.0862 61.222 10.1165 60.9707 10.1165ZM62.7503 2.10851V0.925512H64.0503V2.10851H62.7503ZM62.8803 9.99951V3.68151H63.9333V9.99951H62.8803ZM65.9018 9.99951V3.68151H66.9288V4.76051C67.1368 4.36184 67.4315 4.06284 67.8128 3.86351C68.1942 3.66418 68.6232 3.56451 69.0998 3.56451C70.5992 3.56451 71.3488 4.39651 71.3488 6.06051V9.99951H70.2958V6.12551C70.2958 5.53618 70.1788 5.10718 69.9448 4.83851C69.7195 4.56118 69.3555 4.42251 68.8528 4.42251C68.2722 4.42251 67.8085 4.60451 67.4618 4.96851C67.1238 5.32384 66.9548 5.80051 66.9548 6.39851V9.99951H65.9018ZM76.0855 12.4565C75.5395 12.4565 75.0238 12.3828 74.5385 12.2355C74.0618 12.0968 73.6372 11.8845 73.2645 11.5985L73.6155 10.8315C74.0055 11.1088 74.3912 11.3082 74.7725 11.4295C75.1625 11.5508 75.5828 11.6115 76.0335 11.6115C77.2815 11.6115 77.9055 10.9702 77.9055 9.68751V8.56951C77.7235 8.96818 77.4375 9.28451 77.0475 9.51851C76.6662 9.74385 76.2285 9.85651 75.7345 9.85651C75.1538 9.85651 74.6512 9.72218 74.2265 9.45351C73.8018 9.18484 73.4725 8.81651 73.2385 8.34851C73.0132 7.87184 72.9005 7.32151 72.9005 6.69751C72.9005 6.07351 73.0132 5.52751 73.2385 5.05951C73.4725 4.58284 73.8018 4.21451 74.2265 3.95451C74.6512 3.69451 75.1538 3.56451 75.7345 3.56451C76.2285 3.56451 76.6662 3.67718 77.0475 3.90251C77.4375 4.12784 77.7235 4.43551 77.9055 4.82551V3.68151H78.9325V9.54451C78.9325 10.5152 78.6898 11.2432 78.2045 11.7285C77.7278 12.2138 77.0215 12.4565 76.0855 12.4565ZM75.9295 8.99851C76.5362 8.99851 77.0172 8.79051 77.3725 8.37451C77.7278 7.95851 77.9055 7.39951 77.9055 6.69751C77.9055 5.99551 77.7278 5.44084 77.3725 5.03351C77.0172 4.61751 76.5362 4.40951 75.9295 4.40951C75.3315 4.40951 74.8548 4.61751 74.4995 5.03351C74.1442 5.44084 73.9665 5.99551 73.9665 6.69751C73.9665 7.39951 74.1442 7.95851 74.4995 8.37451C74.8548 8.79051 75.3315 8.99851 75.9295 8.99851ZM86.8725 10.1165C86.2572 10.1165 85.7242 9.98218 85.2735 9.71351C84.8229 9.44485 84.4719 9.06785 84.2205 8.58251C83.9779 8.08851 83.8565 7.50784 83.8565 6.84051C83.8565 6.17318 83.9779 5.59684 84.2205 5.11151C84.4719 4.61751 84.8229 4.23618 85.2735 3.96751C85.7242 3.69884 86.2572 3.56451 86.8725 3.56451C87.4792 3.56451 88.0079 3.69884 88.4585 3.96751C88.9179 4.23618 89.2689 4.61751 89.5115 5.11151C89.7629 5.59684 89.8885 6.17318 89.8885 6.84051C89.8885 7.50784 89.7629 8.08851 89.5115 8.58251C89.2689 9.06785 88.9179 9.44485 88.4585 9.71351C88.0079 9.98218 87.4792 10.1165 86.8725 10.1165ZM86.8725 9.27151C87.4619 9.27151 87.9342 9.06351 88.2895 8.64751C88.6449 8.22284 88.8225 7.62051 88.8225 6.84051C88.8225 6.05184 88.6449 5.44951 88.2895 5.03351C87.9342 4.61751 87.4619 4.40951 86.8725 4.40951C86.2745 4.40951 85.7979 4.61751 85.4425 5.03351C85.0959 5.44951 84.9225 6.05184 84.9225 6.84051C84.9225 7.62051 85.0959 8.22284 85.4425 8.64751C85.7979 9.06351 86.2745 9.27151 86.8725 9.27151ZM91.7447 9.99951V4.50051H90.4967V3.68151H91.7447V3.46051C91.7447 2.61984 91.9527 1.98284 92.3687 1.54951C92.7934 1.11618 93.4434 0.873511 94.3187 0.821511L94.8257 0.795512L94.9167 1.60151L94.3187 1.64051C93.7814 1.68384 93.3914 1.84418 93.1487 2.12151C92.9147 2.39885 92.7977 2.80184 92.7977 3.33051V3.68151H94.6177V4.50051H92.7977V9.99951H91.7447ZM101.701 10.1165C101.085 10.1165 100.552 9.98218 100.102 9.71351C99.651 9.44485 99.3 9.06785 99.0487 8.58251C98.806 8.08851 98.6847 7.50784 98.6847 6.84051C98.6847 6.17318 98.806 5.59684 99.0487 5.11151C99.3 4.61751 99.651 4.23618 100.102 3.96751C100.552 3.69884 101.085 3.56451 101.701 3.56451C102.307 3.56451 102.836 3.69884 103.287 3.96751C103.746 4.23618 104.097 4.61751 104.34 5.11151C104.591 5.59684 104.717 6.17318 104.717 6.84051C104.717 7.50784 104.591 8.08851 104.34 8.58251C104.097 9.06785 103.746 9.44485 103.287 9.71351C102.836 9.98218 102.307 10.1165 101.701 10.1165ZM101.701 9.27151C102.29 9.27151 102.762 9.06351 103.118 8.64751C103.473 8.22284 103.651 7.62051 103.651 6.84051C103.651 6.05184 103.473 5.44951 103.118 5.03351C102.762 4.61751 102.29 4.40951 101.701 4.40951C101.103 4.40951 100.626 4.61751 100.271 5.03351C99.924 5.44951 99.7507 6.05184 99.7507 6.84051C99.7507 7.62051 99.924 8.22284 100.271 8.64751C100.626 9.06351 101.103 9.27151 101.701 9.27151ZM108.235 10.1165C107.594 10.1165 107.109 9.93018 106.779 9.55751C106.459 9.17618 106.298 8.62584 106.298 7.90651V0.834511H107.351V7.82851C107.351 8.75584 107.72 9.21951 108.456 9.21951C108.673 9.21951 108.868 9.19351 109.041 9.14151L109.015 10.0255C108.747 10.0862 108.487 10.1165 108.235 10.1165ZM112.487 10.1165C111.923 10.1165 111.429 9.98218 111.005 9.71351C110.589 9.44485 110.264 9.06785 110.03 8.58251C109.804 8.08851 109.692 7.50784 109.692 6.84051C109.692 6.16451 109.804 5.58384 110.03 5.09851C110.264 4.60451 110.589 4.22751 111.005 3.96751C111.429 3.69884 111.923 3.56451 112.487 3.56451C112.981 3.56451 113.414 3.67284 113.787 3.88951C114.168 4.10618 114.45 4.40518 114.632 4.78651V0.834511H115.685V9.99951H114.658V8.84251C114.476 9.24118 114.194 9.55318 113.813 9.77851C113.431 10.0038 112.989 10.1165 112.487 10.1165ZM112.708 9.27151C113.297 9.27151 113.769 9.06351 114.125 8.64751C114.48 8.22284 114.658 7.62051 114.658 6.84051C114.658 6.05184 114.48 5.44951 114.125 5.03351C113.769 4.61751 113.297 4.40951 112.708 4.40951C112.11 4.40951 111.633 4.61751 111.278 5.03351C110.931 5.44951 110.758 6.05184 110.758 6.84051C110.758 7.62051 110.931 8.22284 111.278 8.64751C111.633 9.06351 112.11 9.27151 112.708 9.27151ZM123.677 10.1165C123.045 10.1165 122.499 9.98218 122.039 9.71351C121.58 9.43618 121.225 9.05051 120.973 8.55651C120.731 8.05384 120.609 7.46884 120.609 6.80151C120.609 5.79618 120.882 5.00751 121.428 4.43551C121.974 3.85484 122.724 3.56451 123.677 3.56451C124.067 3.56451 124.453 3.63384 124.834 3.77251C125.216 3.91118 125.532 4.10618 125.783 4.35751L125.419 5.12451C125.168 4.88184 124.891 4.70418 124.587 4.59151C124.293 4.47884 124.011 4.42251 123.742 4.42251C123.084 4.42251 122.577 4.63051 122.221 5.04651C121.866 5.45384 121.688 6.04318 121.688 6.81451C121.688 7.56851 121.866 8.16651 122.221 8.60851C122.577 9.04184 123.084 9.25851 123.742 9.25851C124.011 9.25851 124.293 9.20218 124.587 9.08951C124.891 8.97685 125.168 8.79484 125.419 8.54351L125.783 9.31051C125.532 9.56185 125.211 9.76118 124.821 9.90851C124.44 10.0472 124.059 10.1165 123.677 10.1165ZM129.516 10.1165C128.901 10.1165 128.368 9.98218 127.917 9.71351C127.466 9.44485 127.115 9.06785 126.864 8.58251C126.621 8.08851 126.5 7.50784 126.5 6.84051C126.5 6.17318 126.621 5.59684 126.864 5.11151C127.115 4.61751 127.466 4.23618 127.917 3.96751C128.368 3.69884 128.901 3.56451 129.516 3.56451C130.123 3.56451 130.651 3.69884 131.102 3.96751C131.561 4.23618 131.912 4.61751 132.155 5.11151C132.406 5.59684 132.532 6.17318 132.532 6.84051C132.532 7.50784 132.406 8.08851 132.155 8.58251C131.912 9.06785 131.561 9.44485 131.102 9.71351C130.651 9.98218 130.123 10.1165 129.516 10.1165ZM129.516 9.27151C130.105 9.27151 130.578 9.06351 130.933 8.64751C131.288 8.22284 131.466 7.62051 131.466 6.84051C131.466 6.05184 131.288 5.44951 130.933 5.03351C130.578 4.61751 130.105 4.40951 129.516 4.40951C128.918 4.40951 128.441 4.61751 128.086 5.03351C127.739 5.44951 127.566 6.05184 127.566 6.84051C127.566 7.62051 127.739 8.22284 128.086 8.64751C128.441 9.06351 128.918 9.27151 129.516 9.27151ZM136.103 10.1165C135.669 10.1165 135.279 10.0342 134.933 9.86951C134.595 9.69618 134.326 9.46218 134.127 9.16751C133.927 8.87284 133.828 8.54351 133.828 8.17951C133.828 7.72018 133.945 7.35618 134.179 7.08751C134.421 6.81884 134.816 6.62818 135.362 6.51551C135.916 6.39418 136.67 6.33351 137.624 6.33351H138.04V5.93051C138.04 5.39318 137.927 5.00751 137.702 4.77351C137.485 4.53084 137.134 4.40951 136.649 4.40951C136.267 4.40951 135.899 4.46584 135.544 4.57851C135.188 4.68251 134.824 4.85584 134.452 5.09851L134.088 4.33151C134.417 4.09751 134.816 3.91118 135.284 3.77251C135.76 3.63384 136.215 3.56451 136.649 3.56451C137.463 3.56451 138.066 3.76384 138.456 4.16251C138.854 4.56118 139.054 5.18084 139.054 6.02151V9.99951H138.066V8.90751C137.901 9.28018 137.645 9.57485 137.299 9.79151C136.961 10.0082 136.562 10.1165 136.103 10.1165ZM136.272 9.32351C136.792 9.32351 137.216 9.14585 137.546 8.79051C137.875 8.42651 138.04 7.96718 138.04 7.41251V7.02251H137.637C136.935 7.02251 136.38 7.05718 135.973 7.12651C135.574 7.18718 135.292 7.29984 135.128 7.46451C134.972 7.62051 134.894 7.83718 134.894 8.11451C134.894 8.46984 135.015 8.76018 135.258 8.98551C135.509 9.21085 135.847 9.32351 136.272 9.32351ZM143.542 10.1165C142.797 10.1165 142.238 9.92151 141.865 9.53151C141.493 9.13285 141.306 8.56084 141.306 7.81551V4.50051H140.071V3.68151H141.306V1.74451H142.359V3.68151H144.361V4.50051H142.359V7.71151C142.359 8.20551 142.463 8.58251 142.671 8.84251C142.879 9.09385 143.217 9.21951 143.685 9.21951C143.824 9.21951 143.963 9.20218 144.101 9.16751C144.24 9.13285 144.366 9.09818 144.478 9.06351L144.66 9.86951C144.548 9.93018 144.383 9.98651 144.166 10.0385C143.95 10.0905 143.742 10.1165 143.542 10.1165ZM145.422 2.10851V0.925512H146.722V2.10851H145.422ZM145.552 9.99951V3.68151H146.605V9.99951H145.552ZM148.574 9.99951V3.68151H149.601V4.76051C149.809 4.36184 150.103 4.06284 150.485 3.86351C150.866 3.66418 151.295 3.56451 151.772 3.56451C153.271 3.56451 154.021 4.39651 154.021 6.06051V9.99951H152.968V6.12551C152.968 5.53618 152.851 5.10718 152.617 4.83851C152.391 4.56118 152.027 4.42251 151.525 4.42251C150.944 4.42251 150.48 4.60451 150.134 4.96851C149.796 5.32384 149.627 5.80051 149.627 6.39851V9.99951H148.574ZM158.757 12.4565C158.211 12.4565 157.696 12.3828 157.21 12.2355C156.734 12.0968 156.309 11.8845 155.936 11.5985L156.287 10.8315C156.677 11.1088 157.063 11.3082 157.444 11.4295C157.834 11.5508 158.255 11.6115 158.705 11.6115C159.953 11.6115 160.577 10.9702 160.577 9.68751V8.56951C160.395 8.96818 160.109 9.28451 159.719 9.51851C159.338 9.74385 158.9 9.85651 158.406 9.85651C157.826 9.85651 157.323 9.72218 156.898 9.45351C156.474 9.18484 156.144 8.81651 155.91 8.34851C155.685 7.87184 155.572 7.32151 155.572 6.69751C155.572 6.07351 155.685 5.52751 155.91 5.05951C156.144 4.58284 156.474 4.21451 156.898 3.95451C157.323 3.69451 157.826 3.56451 158.406 3.56451C158.9 3.56451 159.338 3.67718 159.719 3.90251C160.109 4.12784 160.395 4.43551 160.577 4.82551V3.68151H161.604V9.54451C161.604 10.5152 161.362 11.2432 160.876 11.7285C160.4 12.2138 159.693 12.4565 158.757 12.4565ZM158.601 8.99851C159.208 8.99851 159.689 8.79051 160.044 8.37451C160.4 7.95851 160.577 7.39951 160.577 6.69751C160.577 5.99551 160.4 5.44084 160.044 5.03351C159.689 4.61751 159.208 4.40951 158.601 4.40951C158.003 4.40951 157.527 4.61751 157.171 5.03351C156.816 5.44084 156.638 5.99551 156.638 6.69751C156.638 7.39951 156.816 7.95851 157.171 8.37451C157.527 8.79051 158.003 8.99851 158.601 8.99851ZM165.712 10.1165C165.218 10.1165 164.75 10.0472 164.308 9.90851C163.866 9.76985 163.502 9.57485 163.216 9.32351L163.554 8.58251C163.866 8.83384 164.208 9.02018 164.581 9.14151C164.962 9.25418 165.348 9.31051 165.738 9.31051C166.232 9.31051 166.604 9.21951 166.856 9.03751C167.107 8.85551 167.233 8.60851 167.233 8.29651C167.233 8.05384 167.15 7.86318 166.986 7.72451C166.821 7.57718 166.561 7.46451 166.206 7.38651L165.023 7.12651C163.948 6.89251 163.411 6.33784 163.411 5.46251C163.411 4.89051 163.636 4.43118 164.087 4.08451C164.546 3.73784 165.144 3.56451 165.881 3.56451C166.314 3.56451 166.726 3.63384 167.116 3.77251C167.514 3.90251 167.844 4.09751 168.104 4.35751L167.753 5.09851C167.501 4.86451 167.207 4.68684 166.869 4.56551C166.539 4.43551 166.21 4.37051 165.881 4.37051C165.395 4.37051 165.027 4.46584 164.776 4.65651C164.524 4.84718 164.399 5.09851 164.399 5.41051C164.399 5.89584 164.719 6.20784 165.361 6.34651L166.544 6.59351C167.098 6.71484 167.519 6.90984 167.805 7.17851C168.091 7.43851 168.234 7.79384 168.234 8.24451C168.234 8.82518 168.004 9.28451 167.545 9.62251C167.085 9.95185 166.474 10.1165 165.712 10.1165ZM2.40576 35.8555C1.98109 35.8555 1.59109 35.7558 1.23576 35.5565C0.880423 35.3485 0.594423 35.0712 0.377756 34.7245C0.161089 34.3778 0.0527559 33.9878 0.0527559 33.5545C0.0527559 33.1558 0.152423 32.7832 0.351756 32.4365C0.559756 32.0812 0.841423 31.7952 1.19676 31.5785C1.55209 31.3532 1.95509 31.2405 2.40576 31.2405C2.82176 31.2405 3.20742 31.3402 3.56276 31.5395C3.92676 31.7388 4.21709 32.0162 4.43376 32.3715C4.65042 32.7182 4.75876 33.1125 4.75876 33.5545C4.75876 33.9792 4.65042 34.3648 4.43376 34.7115C4.22576 35.0582 3.94409 35.3355 3.58876 35.5435C3.23342 35.7515 2.83909 35.8555 2.40576 35.8555ZM12.757 36.9995L9.54601 27.8345H10.664L13.251 35.4395L15.903 27.8345H16.761L19.387 35.5045L22.026 27.8345H23.092L19.881 36.9995H18.932L16.319 29.4595L13.68 36.9995H12.757ZM25.7043 37.1165C25.271 37.1165 24.881 37.0342 24.5343 36.8695C24.1963 36.6962 23.9276 36.4622 23.7283 36.1675C23.529 35.8728 23.4293 35.5435 23.4293 35.1795C23.4293 34.7202 23.5463 34.3562 23.7803 34.0875C24.023 33.8188 24.4173 33.6282 24.9633 33.5155C25.518 33.3942 26.272 33.3335 27.2253 33.3335H27.6413V32.9305C27.6413 32.3932 27.5286 32.0075 27.3033 31.7735C27.0866 31.5308 26.7356 31.4095 26.2503 31.4095C25.869 31.4095 25.5006 31.4658 25.1453 31.5785C24.79 31.6825 24.426 31.8558 24.0533 32.0985L23.6893 31.3315C24.0186 31.0975 24.4173 30.9112 24.8853 30.7725C25.362 30.6338 25.817 30.5645 26.2503 30.5645C27.065 30.5645 27.6673 30.7638 28.0573 31.1625C28.456 31.5612 28.6553 32.1808 28.6553 33.0215V36.9995H27.6673V35.9075C27.5026 36.2802 27.247 36.5748 26.9003 36.7915C26.5623 37.0082 26.1636 37.1165 25.7043 37.1165ZM25.8733 36.3235C26.3933 36.3235 26.818 36.1458 27.1473 35.7905C27.4766 35.4265 27.6413 34.9672 27.6413 34.4125V34.0225H27.2383C26.5363 34.0225 25.9816 34.0572 25.5743 34.1265C25.1756 34.1872 24.894 34.2998 24.7293 34.4645C24.5733 34.6205 24.4953 34.8372 24.4953 35.1145C24.4953 35.4698 24.6166 35.7602 24.8593 35.9855C25.1106 36.2108 25.4486 36.3235 25.8733 36.3235ZM32.5458 37.1165C31.9045 37.1165 31.4192 36.9302 31.0898 36.5575C30.7692 36.1762 30.6088 35.6258 30.6088 34.9065V27.8345H31.6618V34.8285C31.6618 35.7558 32.0302 36.2195 32.7668 36.2195C32.9835 36.2195 33.1785 36.1935 33.3518 36.1415L33.3258 37.0255C33.0572 37.0862 32.7972 37.1165 32.5458 37.1165ZM36.3925 37.1165C35.7512 37.1165 35.2659 36.9302 34.9365 36.5575C34.6159 36.1762 34.4555 35.6258 34.4555 34.9065V27.8345H35.5085V34.8285C35.5085 35.7558 35.8769 36.2195 36.6135 36.2195C36.8302 36.2195 37.0252 36.1935 37.1985 36.1415L37.1725 37.0255C36.9039 37.0862 36.6439 37.1165 36.3925 37.1165ZM38.3022 39.3395V30.6815H39.3292V31.8125C39.5199 31.4225 39.8015 31.1192 40.1742 30.9025C40.5555 30.6772 40.9975 30.5645 41.5002 30.5645C42.0635 30.5645 42.5532 30.6988 42.9692 30.9675C43.3939 31.2275 43.7189 31.6045 43.9442 32.0985C44.1782 32.5838 44.2952 33.1645 44.2952 33.8405C44.2952 34.5078 44.1782 35.0885 43.9442 35.5825C43.7189 36.0678 43.3939 36.4448 42.9692 36.7135C42.5532 36.9822 42.0635 37.1165 41.5002 37.1165C41.0149 37.1165 40.5815 37.0082 40.2002 36.7915C39.8189 36.5748 39.5372 36.2758 39.3552 35.8945V39.3395H38.3022ZM41.2792 36.2715C41.8685 36.2715 42.3409 36.0635 42.6962 35.6475C43.0515 35.2228 43.2292 34.6205 43.2292 33.8405C43.2292 33.0518 43.0515 32.4495 42.6962 32.0335C42.3409 31.6175 41.8685 31.4095 41.2792 31.4095C40.6899 31.4095 40.2175 31.6175 39.8622 32.0335C39.5069 32.4495 39.3292 33.0518 39.3292 33.8405C39.3292 34.6205 39.5069 35.2228 39.8622 35.6475C40.2175 36.0635 40.6899 36.2715 41.2792 36.2715ZM47.8703 37.1165C47.437 37.1165 47.047 37.0342 46.7003 36.8695C46.3623 36.6962 46.0936 36.4622 45.8943 36.1675C45.695 35.8728 45.5953 35.5435 45.5953 35.1795C45.5953 34.7202 45.7123 34.3562 45.9463 34.0875C46.189 33.8188 46.5833 33.6282 47.1293 33.5155C47.684 33.3942 48.438 33.3335 49.3913 33.3335H49.8073V32.9305C49.8073 32.3932 49.6946 32.0075 49.4693 31.7735C49.2526 31.5308 48.9016 31.4095 48.4163 31.4095C48.035 31.4095 47.6666 31.4658 47.3113 31.5785C46.956 31.6825 46.592 31.8558 46.2193 32.0985L45.8553 31.3315C46.1846 31.0975 46.5833 30.9112 47.0513 30.7725C47.528 30.6338 47.983 30.5645 48.4163 30.5645C49.231 30.5645 49.8333 30.7638 50.2233 31.1625C50.622 31.5612 50.8213 32.1808 50.8213 33.0215V36.9995H49.8333V35.9075C49.6686 36.2802 49.413 36.5748 49.0663 36.7915C48.7283 37.0082 48.3296 37.1165 47.8703 37.1165ZM48.0393 36.3235C48.5593 36.3235 48.984 36.1458 49.3133 35.7905C49.6426 35.4265 49.8073 34.9672 49.8073 34.4125V34.0225H49.4043C48.7023 34.0225 48.1476 34.0572 47.7403 34.1265C47.3416 34.1872 47.06 34.2998 46.8953 34.4645C46.7393 34.6205 46.6613 34.8372 46.6613 35.1145C46.6613 35.4698 46.7826 35.7602 47.0253 35.9855C47.2766 36.2108 47.6146 36.3235 48.0393 36.3235ZM52.7749 39.3395V30.6815H53.8019V31.8125C53.9925 31.4225 54.2742 31.1192 54.6469 30.9025C55.0282 30.6772 55.4702 30.5645 55.9729 30.5645C56.5362 30.5645 57.0259 30.6988 57.4419 30.9675C57.8665 31.2275 58.1915 31.6045 58.4169 32.0985C58.6509 32.5838 58.7679 33.1645 58.7679 33.8405C58.7679 34.5078 58.6509 35.0885 58.4169 35.5825C58.1915 36.0678 57.8665 36.4448 57.4419 36.7135C57.0259 36.9822 56.5362 37.1165 55.9729 37.1165C55.4875 37.1165 55.0542 37.0082 54.6729 36.7915C54.2915 36.5748 54.0099 36.2758 53.8279 35.8945V39.3395H52.7749ZM55.7519 36.2715C56.3412 36.2715 56.8135 36.0635 57.1689 35.6475C57.5242 35.2228 57.7019 34.6205 57.7019 33.8405C57.7019 33.0518 57.5242 32.4495 57.1689 32.0335C56.8135 31.6175 56.3412 31.4095 55.7519 31.4095C55.1625 31.4095 54.6902 31.6175 54.3349 32.0335C53.9795 32.4495 53.8019 33.0518 53.8019 33.8405C53.8019 34.6205 53.9795 35.2228 54.3349 35.6475C54.6902 36.0635 55.1625 36.2715 55.7519 36.2715ZM63.201 37.1165C62.2043 37.1165 61.4156 36.8262 60.835 36.2455C60.2543 35.6562 59.964 34.8588 59.964 33.8535C59.964 33.2035 60.094 32.6315 60.354 32.1375C60.614 31.6348 60.9693 31.2492 61.42 30.9805C61.8793 30.7032 62.408 30.5645 63.006 30.5645C63.864 30.5645 64.5356 30.8418 65.021 31.3965C65.5063 31.9425 65.749 32.6965 65.749 33.6585V34.0615H60.991C61.0256 34.7808 61.2336 35.3312 61.615 35.7125C61.9963 36.0852 62.525 36.2715 63.201 36.2715C63.5823 36.2715 63.9463 36.2152 64.293 36.1025C64.6396 35.9812 64.969 35.7862 65.281 35.5175L65.645 36.2585C65.359 36.5272 64.995 36.7395 64.553 36.8955C64.111 37.0428 63.6603 37.1165 63.201 37.1165ZM63.032 31.3445C62.434 31.3445 61.9616 31.5308 61.615 31.9035C61.2683 32.2762 61.0646 32.7658 61.004 33.3725H64.839C64.813 32.7312 64.644 32.2328 64.332 31.8775C64.0286 31.5222 63.5953 31.3445 63.032 31.3445ZM67.2729 36.9995V30.6815H68.2999V31.8125C68.6379 31.0498 69.3312 30.6295 70.3799 30.5515L70.7569 30.5125L70.8349 31.4225L70.1719 31.5005C69.5739 31.5525 69.1189 31.7432 68.8069 32.0725C68.4949 32.3932 68.3389 32.8352 68.3389 33.3985V36.9995H67.2729ZM71.8021 29.1085V27.9255H73.1021V29.1085H71.8021ZM71.9321 36.9995V30.6815H72.9851V36.9995H71.9321ZM74.9536 36.9995V30.6815H75.9806V31.7605C76.1886 31.3618 76.4832 31.0628 76.8646 30.8635C77.2459 30.6642 77.6749 30.5645 78.1516 30.5645C79.6509 30.5645 80.4006 31.3965 80.4006 33.0605V36.9995H79.3476V33.1255C79.3476 32.5362 79.2306 32.1072 78.9966 31.8385C78.7712 31.5612 78.4072 31.4225 77.9046 31.4225C77.3239 31.4225 76.8602 31.6045 76.5136 31.9685C76.1756 32.3238 76.0066 32.8005 76.0066 33.3985V36.9995H74.9536ZM85.1372 39.4565C84.5912 39.4565 84.0756 39.3828 83.5902 39.2355C83.1136 39.0968 82.6889 38.8845 82.3162 38.5985L82.6672 37.8315C83.0572 38.1088 83.4429 38.3082 83.8242 38.4295C84.2142 38.5508 84.6346 38.6115 85.0852 38.6115C86.3332 38.6115 86.9572 37.9702 86.9572 36.6875V35.5695C86.7752 35.9682 86.4892 36.2845 86.0992 36.5185C85.7179 36.7438 85.2802 36.8565 84.7862 36.8565C84.2056 36.8565 83.7029 36.7222 83.2782 36.4535C82.8536 36.1848 82.5242 35.8165 82.2902 35.3485C82.0649 34.8718 81.9522 34.3215 81.9522 33.6975C81.9522 33.0735 82.0649 32.5275 82.2902 32.0595C82.5242 31.5828 82.8536 31.2145 83.2782 30.9545C83.7029 30.6945 84.2056 30.5645 84.7862 30.5645C85.2802 30.5645 85.7179 30.6772 86.0992 30.9025C86.4892 31.1278 86.7752 31.4355 86.9572 31.8255V30.6815H87.9842V36.5445C87.9842 37.5152 87.7416 38.2432 87.2562 38.7285C86.7796 39.2138 86.0732 39.4565 85.1372 39.4565ZM84.9812 35.9985C85.5879 35.9985 86.0689 35.7905 86.4242 35.3745C86.7796 34.9585 86.9572 34.3995 86.9572 33.6975C86.9572 32.9955 86.7796 32.4408 86.4242 32.0335C86.0689 31.6175 85.5879 31.4095 84.9812 31.4095C84.3832 31.4095 83.9066 31.6175 83.5512 32.0335C83.1959 32.4408 83.0182 32.9955 83.0182 33.6975C83.0182 34.3995 83.1959 34.9585 83.5512 35.3745C83.9066 35.7905 84.3832 35.9985 84.9812 35.9985ZM2.40576 61.8555C1.98109 61.8555 1.59109 61.7558 1.23576 61.5565C0.880423 61.3485 0.594423 61.0712 0.377756 60.7245C0.161089 60.3778 0.0527559 59.9878 0.0527559 59.5545C0.0527559 59.1558 0.152423 58.7832 0.351756 58.4365C0.559756 58.0812 0.841423 57.7952 1.19676 57.5785C1.55209 57.3532 1.95509 57.2405 2.40576 57.2405C2.82176 57.2405 3.20742 57.3402 3.56276 57.5395C3.92676 57.7388 4.21709 58.0162 4.43376 58.3715C4.65042 58.7182 4.75876 59.1125 4.75876 59.5545C4.75876 59.9792 4.65042 60.3648 4.43376 60.7115C4.22576 61.0582 3.94409 61.3355 3.58876 61.5435C3.23342 61.7515 2.83909 61.8555 2.40576 61.8555ZM10.287 62.9995V53.8345H13.914C14.902 53.8345 15.656 54.0728 16.176 54.5495C16.7047 55.0262 16.969 55.7065 16.969 56.5905C16.969 57.4658 16.7047 58.1462 16.176 58.6315C15.656 59.1082 14.902 59.3465 13.914 59.3465H11.353V62.9995H10.287ZM11.353 58.4495H13.784C15.2053 58.4495 15.916 57.8298 15.916 56.5905C15.916 55.3425 15.2053 54.7185 13.784 54.7185H11.353V58.4495ZM20.0422 63.1165C19.6089 63.1165 19.2189 63.0342 18.8722 62.8695C18.5342 62.6962 18.2655 62.4622 18.0662 62.1675C17.8669 61.8728 17.7672 61.5435 17.7672 61.1795C17.7672 60.7202 17.8842 60.3562 18.1182 60.0875C18.3609 59.8188 18.7552 59.6282 19.3012 59.5155C19.8559 59.3942 20.6099 59.3335 21.5632 59.3335H21.9792V58.9305C21.9792 58.3932 21.8665 58.0075 21.6412 57.7735C21.4245 57.5308 21.0735 57.4095 20.5882 57.4095C20.2069 57.4095 19.8385 57.4658 19.4832 57.5785C19.1279 57.6825 18.7639 57.8558 18.3912 58.0985L18.0272 57.3315C18.3565 57.0975 18.7552 56.9112 19.2232 56.7725C19.6999 56.6338 20.1549 56.5645 20.5882 56.5645C21.4029 56.5645 22.0052 56.7638 22.3952 57.1625C22.7939 57.5612 22.9932 58.1808 22.9932 59.0215V62.9995H22.0052V61.9075C21.8405 62.2802 21.5849 62.5748 21.2382 62.7915C20.9002 63.0082 20.5015 63.1165 20.0422 63.1165ZM20.2112 62.3235C20.7312 62.3235 21.1559 62.1458 21.4852 61.7905C21.8145 61.4265 21.9792 60.9672 21.9792 60.4125V60.0225H21.5762C20.8742 60.0225 20.3195 60.0572 19.9122 60.1265C19.5135 60.1872 19.2319 60.2998 19.0672 60.4645C18.9112 60.6205 18.8332 60.8372 18.8332 61.1145C18.8332 61.4698 18.9545 61.7602 19.1972 61.9855C19.4485 62.2108 19.7865 62.3235 20.2112 62.3235ZM24.8167 55.1085V53.9255H26.1167V55.1085H24.8167ZM24.9467 62.9995V56.6815H25.9997V62.9995H24.9467ZM27.9682 62.9995V56.6815H28.9952V57.7605C29.2032 57.3618 29.4979 57.0628 29.8792 56.8635C30.2606 56.6642 30.6896 56.5645 31.1662 56.5645C32.6656 56.5645 33.4152 57.3965 33.4152 59.0605V62.9995H32.3622V59.1255C32.3622 58.5362 32.2452 58.1072 32.0112 57.8385C31.7859 57.5612 31.4219 57.4225 30.9192 57.4225C30.3386 57.4225 29.8749 57.6045 29.5282 57.9685C29.1902 58.3238 29.0212 58.8005 29.0212 59.3985V62.9995H27.9682ZM37.8919 63.1165C37.1466 63.1165 36.5876 62.9215 36.2149 62.5315C35.8422 62.1328 35.6559 61.5608 35.6559 60.8155V57.5005H34.4209V56.6815H35.6559V54.7445H36.7089V56.6815H38.7109V57.5005H36.7089V60.7115C36.7089 61.2055 36.8129 61.5825 37.0209 61.8425C37.2289 62.0938 37.5669 62.2195 38.0349 62.2195C38.1736 62.2195 38.3122 62.2022 38.4509 62.1675C38.5896 62.1328 38.7152 62.0982 38.8279 62.0635L39.0099 62.8695C38.8972 62.9302 38.7326 62.9865 38.5159 63.0385C38.2992 63.0905 38.0912 63.1165 37.8919 63.1165ZM39.7718 55.1085V53.9255H41.0718V55.1085H39.7718ZM39.9018 62.9995V56.6815H40.9548V62.9995H39.9018ZM42.9233 62.9995V56.6815H43.9503V57.7605C44.1583 57.3618 44.453 57.0628 44.8343 56.8635C45.2156 56.6642 45.6446 56.5645 46.1213 56.5645C47.6206 56.5645 48.3703 57.3965 48.3703 59.0605V62.9995H47.3173V59.1255C47.3173 58.5362 47.2003 58.1072 46.9663 57.8385C46.741 57.5612 46.377 57.4225 45.8743 57.4225C45.2936 57.4225 44.83 57.6045 44.4833 57.9685C44.1453 58.3238 43.9763 58.8005 43.9763 59.3985V62.9995H42.9233ZM53.107 65.4565C52.561 65.4565 52.0453 65.3828 51.56 65.2355C51.0833 65.0968 50.6586 64.8845 50.286 64.5985L50.637 63.8315C51.027 64.1088 51.4126 64.3082 51.794 64.4295C52.184 64.5508 52.6043 64.6115 53.055 64.6115C54.303 64.6115 54.927 63.9702 54.927 62.6875V61.5695C54.745 61.9682 54.459 62.2845 54.069 62.5185C53.6876 62.7438 53.25 62.8565 52.756 62.8565C52.1753 62.8565 51.6726 62.7222 51.248 62.4535C50.8233 62.1848 50.494 61.8165 50.26 61.3485C50.0346 60.8718 49.922 60.3215 49.922 59.6975C49.922 59.0735 50.0346 58.5275 50.26 58.0595C50.494 57.5828 50.8233 57.2145 51.248 56.9545C51.6726 56.6945 52.1753 56.5645 52.756 56.5645C53.25 56.5645 53.6876 56.6772 54.069 56.9025C54.459 57.1278 54.745 57.4355 54.927 57.8255V56.6815H55.954V62.5445C55.954 63.5152 55.7113 64.2432 55.226 64.7285C54.7493 65.2138 54.043 65.4565 53.107 65.4565ZM52.951 61.9985C53.5576 61.9985 54.0386 61.7905 54.394 61.3745C54.7493 60.9585 54.927 60.3995 54.927 59.6975C54.927 58.9955 54.7493 58.4408 54.394 58.0335C54.0386 57.6175 53.5576 57.4095 52.951 57.4095C52.353 57.4095 51.8763 57.6175 51.521 58.0335C51.1656 58.4408 50.988 58.9955 50.988 59.6975C50.988 60.3995 51.1656 60.9585 51.521 61.3745C51.8763 61.7905 52.353 61.9985 52.951 61.9985ZM62.945 62.9995L60.592 56.6815H61.697L63.478 61.7645L65.324 56.6815H66.221L68.041 61.7775L69.848 56.6815H70.901L68.535 62.9995H67.534L65.753 58.0985L63.959 62.9995H62.945ZM74.0607 63.1165C73.6274 63.1165 73.2374 63.0342 72.8907 62.8695C72.5527 62.6962 72.2841 62.4622 72.0847 62.1675C71.8854 61.8728 71.7857 61.5435 71.7857 61.1795C71.7857 60.7202 71.9027 60.3562 72.1367 60.0875C72.3794 59.8188 72.7737 59.6282 73.3197 59.5155C73.8744 59.3942 74.6284 59.3335 75.5817 59.3335H75.9977V58.9305C75.9977 58.3932 75.8851 58.0075 75.6597 57.7735C75.4431 57.5308 75.0921 57.4095 74.6067 57.4095C74.2254 57.4095 73.8571 57.4658 73.5017 57.5785C73.1464 57.6825 72.7824 57.8558 72.4097 58.0985L72.0457 57.3315C72.3751 57.0975 72.7737 56.9112 73.2417 56.7725C73.7184 56.6338 74.1734 56.5645 74.6067 56.5645C75.4214 56.5645 76.0237 56.7638 76.4137 57.1625C76.8124 57.5612 77.0117 58.1808 77.0117 59.0215V62.9995H76.0237V61.9075C75.8591 62.2802 75.6034 62.5748 75.2567 62.7915C74.9187 63.0082 74.5201 63.1165 74.0607 63.1165ZM74.2297 62.3235C74.7497 62.3235 75.1744 62.1458 75.5037 61.7905C75.8331 61.4265 75.9977 60.9672 75.9977 60.4125V60.0225H75.5947C74.8927 60.0225 74.3381 60.0572 73.9307 60.1265C73.5321 60.1872 73.2504 60.2998 73.0857 60.4645C72.9297 60.6205 72.8517 60.8372 72.8517 61.1145C72.8517 61.4698 72.9731 61.7602 73.2157 61.9855C73.4671 62.2108 73.8051 62.3235 74.2297 62.3235ZM80.9023 63.1165C80.261 63.1165 79.7756 62.9302 79.4463 62.5575C79.1256 62.1762 78.9653 61.6258 78.9653 60.9065V53.8345H80.0183V60.8285C80.0183 61.7558 80.3866 62.2195 81.1233 62.2195C81.34 62.2195 81.535 62.1935 81.7083 62.1415L81.6823 63.0255C81.4136 63.0862 81.1536 63.1165 80.9023 63.1165ZM84.749 63.1165C84.1076 63.1165 83.6223 62.9302 83.293 62.5575C82.9723 62.1762 82.812 61.6258 82.812 60.9065V53.8345H83.865V60.8285C83.865 61.7558 84.2333 62.2195 84.97 62.2195C85.1866 62.2195 85.3816 62.1935 85.555 62.1415L85.529 63.0255C85.2603 63.0862 85.0003 63.1165 84.749 63.1165ZM88.7272 63.1165C88.2332 63.1165 87.7652 63.0472 87.3232 62.9085C86.8812 62.7698 86.5172 62.5748 86.2312 62.3235L86.5692 61.5825C86.8812 61.8338 87.2235 62.0202 87.5962 62.1415C87.9775 62.2542 88.3632 62.3105 88.7532 62.3105C89.2472 62.3105 89.6198 62.2195 89.8712 62.0375C90.1225 61.8555 90.2482 61.6085 90.2482 61.2965C90.2482 61.0538 90.1658 60.8632 90.0012 60.7245C89.8365 60.5772 89.5765 60.4645 89.2212 60.3865L88.0382 60.1265C86.9635 59.8925 86.4262 59.3378 86.4262 58.4625C86.4262 57.8905 86.6515 57.4312 87.1022 57.0845C87.5615 56.7378 88.1595 56.5645 88.8962 56.5645C89.3295 56.5645 89.7412 56.6338 90.1312 56.7725C90.5298 56.9025 90.8592 57.0975 91.1192 57.3575L90.7682 58.0985C90.5168 57.8645 90.2222 57.6868 89.8842 57.5655C89.5548 57.4355 89.2255 57.3705 88.8962 57.3705C88.4108 57.3705 88.0425 57.4658 87.7912 57.6565C87.5398 57.8472 87.4142 58.0985 87.4142 58.4105C87.4142 58.8958 87.7348 59.2078 88.3762 59.3465L89.5592 59.5935C90.1138 59.7148 90.5342 59.9098 90.8202 60.1785C91.1062 60.4385 91.2492 60.7938 91.2492 61.2445C91.2492 61.8252 91.0195 62.2845 90.5602 62.6225C90.1008 62.9518 89.4898 63.1165 88.7272 63.1165ZM98.1818 63.1165C97.7485 63.1165 97.3585 63.0342 97.0118 62.8695C96.6738 62.6962 96.4052 62.4622 96.2058 62.1675C96.0065 61.8728 95.9068 61.5435 95.9068 61.1795C95.9068 60.7202 96.0238 60.3562 96.2578 60.0875C96.5005 59.8188 96.8948 59.6282 97.4408 59.5155C97.9955 59.3942 98.7495 59.3335 99.7028 59.3335H100.119V58.9305C100.119 58.3932 100.006 58.0075 99.7808 57.7735C99.5642 57.5308 99.2132 57.4095 98.7278 57.4095C98.3465 57.4095 97.9782 57.4658 97.6228 57.5785C97.2675 57.6825 96.9035 57.8558 96.5308 58.0985L96.1668 57.3315C96.4962 57.0975 96.8948 56.9112 97.3628 56.7725C97.8395 56.6338 98.2945 56.5645 98.7278 56.5645C99.5425 56.5645 100.145 56.7638 100.535 57.1625C100.934 57.5612 101.133 58.1808 101.133 59.0215V62.9995H100.145V61.9075C99.9802 62.2802 99.7245 62.5748 99.3778 62.7915C99.0398 63.0082 98.6412 63.1165 98.1818 63.1165ZM98.3508 62.3235C98.8708 62.3235 99.2955 62.1458 99.6248 61.7905C99.9542 61.4265 100.119 60.9672 100.119 60.4125V60.0225H99.7158C99.0138 60.0225 98.4592 60.0572 98.0518 60.1265C97.6532 60.1872 97.3715 60.2998 97.2068 60.4645C97.0508 60.6205 96.9728 60.8372 96.9728 61.1145C96.9728 61.4698 97.0942 61.7602 97.3368 61.9855C97.5882 62.2108 97.9262 62.3235 98.3508 62.3235ZM103.086 62.9995V56.6815H104.113V57.7605C104.321 57.3618 104.616 57.0628 104.997 56.8635C105.379 56.6642 105.808 56.5645 106.284 56.5645C107.784 56.5645 108.533 57.3965 108.533 59.0605V62.9995H107.48V59.1255C107.48 58.5362 107.363 58.1072 107.129 57.8385C106.904 57.5612 106.54 57.4225 106.037 57.4225C105.457 57.4225 104.993 57.6045 104.646 57.9685C104.308 58.3238 104.139 58.8005 104.139 59.3985V62.9995H103.086ZM112.88 63.1165C112.317 63.1165 111.823 62.9822 111.398 62.7135C110.982 62.4448 110.657 62.0678 110.423 61.5825C110.198 61.0885 110.085 60.5078 110.085 59.8405C110.085 59.1645 110.198 58.5838 110.423 58.0985C110.657 57.6045 110.982 57.2275 111.398 56.9675C111.823 56.6988 112.317 56.5645 112.88 56.5645C113.374 56.5645 113.807 56.6728 114.18 56.8895C114.561 57.1062 114.843 57.4052 115.025 57.7865V53.8345H116.078V62.9995H115.051V61.8425C114.869 62.2412 114.587 62.5532 114.206 62.7785C113.825 63.0038 113.383 63.1165 112.88 63.1165ZM113.101 62.2715C113.69 62.2715 114.163 62.0635 114.518 61.6475C114.873 61.2228 115.051 60.6205 115.051 59.8405C115.051 59.0518 114.873 58.4495 114.518 58.0335C114.163 57.6175 113.69 57.4095 113.101 57.4095C112.503 57.4095 112.026 57.6175 111.671 58.0335C111.324 58.4495 111.151 59.0518 111.151 59.8405C111.151 60.6205 111.324 61.2228 111.671 61.6475C112.026 62.0635 112.503 62.2715 113.101 62.2715ZM124.071 63.1165C123.438 63.1165 122.892 62.9822 122.433 62.7135C121.974 62.4362 121.618 62.0505 121.367 61.5565C121.124 61.0538 121.003 60.4688 121.003 59.8015C121.003 58.7962 121.276 58.0075 121.822 57.4355C122.368 56.8548 123.118 56.5645 124.071 56.5645C124.461 56.5645 124.847 56.6338 125.228 56.7725C125.609 56.9112 125.926 57.1062 126.177 57.3575L125.813 58.1245C125.562 57.8818 125.284 57.7042 124.981 57.5915C124.686 57.4788 124.405 57.4225 124.136 57.4225C123.477 57.4225 122.97 57.6305 122.615 58.0465C122.26 58.4538 122.082 59.0432 122.082 59.8145C122.082 60.5685 122.26 61.1665 122.615 61.6085C122.97 62.0418 123.477 62.2585 124.136 62.2585C124.405 62.2585 124.686 62.2022 124.981 62.0895C125.284 61.9768 125.562 61.7948 125.813 61.5435L126.177 62.3105C125.926 62.5618 125.605 62.7612 125.215 62.9085C124.834 63.0472 124.452 63.1165 124.071 63.1165ZM130.131 63.1165C129.134 63.1165 128.345 62.8262 127.765 62.2455C127.184 61.6562 126.894 60.8588 126.894 59.8535C126.894 59.2035 127.024 58.6315 127.284 58.1375C127.544 57.6348 127.899 57.2492 128.35 56.9805C128.809 56.7032 129.338 56.5645 129.936 56.5645C130.794 56.5645 131.465 56.8418 131.951 57.3965C132.436 57.9425 132.679 58.6965 132.679 59.6585V60.0615H127.921C127.955 60.7808 128.163 61.3312 128.545 61.7125C128.926 62.0852 129.455 62.2715 130.131 62.2715C130.512 62.2715 130.876 62.2152 131.223 62.1025C131.569 61.9812 131.899 61.7862 132.211 61.5175L132.575 62.2585C132.289 62.5272 131.925 62.7395 131.483 62.8955C131.041 63.0428 130.59 63.1165 130.131 63.1165ZM129.962 57.3445C129.364 57.3445 128.891 57.5308 128.545 57.9035C128.198 58.2762 127.994 58.7658 127.934 59.3725H131.769C131.743 58.7312 131.574 58.2328 131.262 57.8775C130.958 57.5222 130.525 57.3445 129.962 57.3445ZM134.073 55.1085V53.9255H135.373V55.1085H134.073ZM134.203 62.9995V56.6815H135.256V62.9995H134.203ZM139.161 63.1165C138.52 63.1165 138.034 62.9302 137.705 62.5575C137.384 62.1762 137.224 61.6258 137.224 60.9065V53.8345H138.277V60.8285C138.277 61.7558 138.645 62.2195 139.382 62.2195C139.599 62.2195 139.794 62.1935 139.967 62.1415L139.941 63.0255C139.672 63.0862 139.412 63.1165 139.161 63.1165ZM140.941 55.1085V53.9255H142.241V55.1085H140.941ZM141.071 62.9995V56.6815H142.124V62.9995H141.071ZM144.092 62.9995V56.6815H145.119V57.7605C145.327 57.3618 145.622 57.0628 146.003 56.8635C146.385 56.6642 146.814 56.5645 147.29 56.5645C148.79 56.5645 149.539 57.3965 149.539 59.0605V62.9995H148.486V59.1255C148.486 58.5362 148.369 58.1072 148.135 57.8385C147.91 57.5612 147.546 57.4225 147.043 57.4225C146.463 57.4225 145.999 57.6045 145.652 57.9685C145.314 58.3238 145.145 58.8005 145.145 59.3985V62.9995H144.092ZM154.276 65.4565C153.73 65.4565 153.214 65.3828 152.729 65.2355C152.252 65.0968 151.828 64.8845 151.455 64.5985L151.806 63.8315C152.196 64.1088 152.582 64.3082 152.963 64.4295C153.353 64.5508 153.773 64.6115 154.224 64.6115C155.472 64.6115 156.096 63.9702 156.096 62.6875V61.5695C155.914 61.9682 155.628 62.2845 155.238 62.5185C154.857 62.7438 154.419 62.8565 153.925 62.8565C153.344 62.8565 152.842 62.7222 152.417 62.4535C151.992 62.1848 151.663 61.8165 151.429 61.3485C151.204 60.8718 151.091 60.3215 151.091 59.6975C151.091 59.0735 151.204 58.5275 151.429 58.0595C151.663 57.5828 151.992 57.2145 152.417 56.9545C152.842 56.6945 153.344 56.5645 153.925 56.5645C154.419 56.5645 154.857 56.6772 155.238 56.9025C155.628 57.1278 155.914 57.4355 156.096 57.8255V56.6815H157.123V62.5445C157.123 63.5152 156.88 64.2432 156.395 64.7285C155.918 65.2138 155.212 65.4565 154.276 65.4565ZM154.12 61.9985C154.727 61.9985 155.208 61.7905 155.563 61.3745C155.918 60.9585 156.096 60.3995 156.096 59.6975C156.096 58.9955 155.918 58.4408 155.563 58.0335C155.208 57.6175 154.727 57.4095 154.12 57.4095C153.522 57.4095 153.045 57.6175 152.69 58.0335C152.335 58.4408 152.157 58.9955 152.157 59.6975C152.157 60.3995 152.335 60.9585 152.69 61.3745C153.045 61.7905 153.522 61.9985 154.12 61.9985ZM161.23 63.1165C160.736 63.1165 160.268 63.0472 159.826 62.9085C159.384 62.7698 159.02 62.5748 158.734 62.3235L159.072 61.5825C159.384 61.8338 159.726 62.0202 160.099 62.1415C160.48 62.2542 160.866 62.3105 161.256 62.3105C161.75 62.3105 162.123 62.2195 162.374 62.0375C162.625 61.8555 162.751 61.6085 162.751 61.2965C162.751 61.0538 162.669 60.8632 162.504 60.7245C162.339 60.5772 162.079 60.4645 161.724 60.3865L160.541 60.1265C159.466 59.8925 158.929 59.3378 158.929 58.4625C158.929 57.8905 159.154 57.4312 159.605 57.0845C160.064 56.7378 160.662 56.5645 161.399 56.5645C161.832 56.5645 162.244 56.6338 162.634 56.7725C163.033 56.9025 163.362 57.0975 163.622 57.3575L163.271 58.0985C163.02 57.8645 162.725 57.6868 162.387 57.5655C162.058 57.4355 161.728 57.3705 161.399 57.3705C160.914 57.3705 160.545 57.4658 160.294 57.6565C160.043 57.8472 159.917 58.0985 159.917 58.4105C159.917 58.8958 160.238 59.2078 160.879 59.3465L162.062 59.5935C162.617 59.7148 163.037 59.9098 163.323 60.1785C163.609 60.4385 163.752 60.7938 163.752 61.2445C163.752 61.8252 163.522 62.2845 163.063 62.6225C162.604 62.9518 161.993 63.1165 161.23 63.1165ZM2.40576 88.8555C1.98109 88.8555 1.59109 88.7558 1.23576 88.5565C0.880423 88.3485 0.594423 88.0712 0.377756 87.7245C0.161089 87.3778 0.0527559 86.9878 0.0527559 86.5545C0.0527559 86.1558 0.152423 85.7832 0.351756 85.4365C0.559756 85.0812 0.841423 84.7952 1.19676 84.5785C1.55209 84.3532 1.95509 84.2405 2.40576 84.2405C2.82176 84.2405 3.20742 84.3402 3.56276 84.5395C3.92676 84.7388 4.21709 85.0162 4.43376 85.3715C4.65042 85.7182 4.75876 86.1125 4.75876 86.5545C4.75876 86.9792 4.65042 87.3648 4.43376 87.7115C4.22576 88.0582 3.94409 88.3355 3.58876 88.5435C3.23342 88.7515 2.83909 88.8555 2.40576 88.8555ZM10.287 89.9995V80.8345H11.353V89.0635H16.02V89.9995H10.287ZM19.1916 90.1165C18.7583 90.1165 18.3683 90.0342 18.0216 89.8695C17.6836 89.6962 17.4149 89.4622 17.2156 89.1675C17.0163 88.8728 16.9166 88.5435 16.9166 88.1795C16.9166 87.7202 17.0336 87.3562 17.2676 87.0875C17.5103 86.8188 17.9046 86.6282 18.4506 86.5155C19.0053 86.3942 19.7593 86.3335 20.7126 86.3335H21.1286V85.9305C21.1286 85.3932 21.0159 85.0075 20.7906 84.7735C20.5739 84.5308 20.2229 84.4095 19.7376 84.4095C19.3563 84.4095 18.9879 84.4658 18.6326 84.5785C18.2773 84.6825 17.9133 84.8558 17.5406 85.0985L17.1766 84.3315C17.5059 84.0975 17.9046 83.9112 18.3726 83.7725C18.8493 83.6338 19.3043 83.5645 19.7376 83.5645C20.5523 83.5645 21.1546 83.7638 21.5446 84.1625C21.9433 84.5612 22.1426 85.1808 22.1426 86.0215V89.9995H21.1546V88.9075C20.9899 89.2802 20.7343 89.5748 20.3876 89.7915C20.0496 90.0082 19.6509 90.1165 19.1916 90.1165ZM19.3606 89.3235C19.8806 89.3235 20.3053 89.1458 20.6346 88.7905C20.9639 88.4265 21.1286 87.9672 21.1286 87.4125V87.0225H20.7256C20.0236 87.0225 19.4689 87.0572 19.0616 87.1265C18.6629 87.1872 18.3813 87.2998 18.2166 87.4645C18.0606 87.6205 17.9826 87.8372 17.9826 88.1145C17.9826 88.4698 18.1039 88.7602 18.3466 88.9855C18.5979 89.2108 18.9359 89.3235 19.3606 89.3235ZM24.7607 92.3395L25.8397 89.8955L23.1747 83.6815H24.3187L26.4117 88.8035L28.5177 83.6815H29.6227L25.8657 92.3395H24.7607ZM30.5804 82.1085V80.9255H31.8804V82.1085H30.5804ZM30.7104 89.9995V83.6815H31.7634V89.9995H30.7104ZM33.7319 89.9995V83.6815H34.7589V84.7605C34.9669 84.3618 35.2616 84.0628 35.6429 83.8635C36.0242 83.6642 36.4532 83.5645 36.9299 83.5645C38.4292 83.5645 39.1789 84.3965 39.1789 86.0605V89.9995H38.1259V86.1255C38.1259 85.5362 38.0089 85.1072 37.7749 84.8385C37.5496 84.5612 37.1856 84.4225 36.6829 84.4225C36.1022 84.4225 35.6386 84.6045 35.2919 84.9685C34.9539 85.3238 34.7849 85.8005 34.7849 86.3985V89.9995H33.7319ZM43.9156 92.4565C43.3696 92.4565 42.8539 92.3828 42.3686 92.2355C41.8919 92.0968 41.4672 91.8845 41.0946 91.5985L41.4456 90.8315C41.8356 91.1088 42.2212 91.3082 42.6026 91.4295C42.9926 91.5508 43.4129 91.6115 43.8636 91.6115C45.1116 91.6115 45.7356 90.9702 45.7356 89.6875V88.5695C45.5536 88.9682 45.2676 89.2845 44.8776 89.5185C44.4962 89.7438 44.0586 89.8565 43.5646 89.8565C42.9839 89.8565 42.4812 89.7222 42.0566 89.4535C41.6319 89.1848 41.3026 88.8165 41.0686 88.3485C40.8432 87.8718 40.7306 87.3215 40.7306 86.6975C40.7306 86.0735 40.8432 85.5275 41.0686 85.0595C41.3026 84.5828 41.6319 84.2145 42.0566 83.9545C42.4812 83.6945 42.9839 83.5645 43.5646 83.5645C44.0586 83.5645 44.4962 83.6772 44.8776 83.9025C45.2676 84.1278 45.5536 84.4355 45.7356 84.8255V83.6815H46.7626V89.5445C46.7626 90.5152 46.5199 91.2432 46.0346 91.7285C45.5579 92.2138 44.8516 92.4565 43.9156 92.4565ZM43.7596 88.9985C44.3662 88.9985 44.8472 88.7905 45.2026 88.3745C45.5579 87.9585 45.7356 87.3995 45.7356 86.6975C45.7356 85.9955 45.5579 85.4408 45.2026 85.0335C44.8472 84.6175 44.3662 84.4095 43.7596 84.4095C43.1616 84.4095 42.6849 84.6175 42.3296 85.0335C41.9742 85.4408 41.7966 85.9955 41.7966 86.6975C41.7966 87.3995 41.9742 87.9585 42.3296 88.3745C42.6849 88.7905 43.1616 88.9985 43.7596 88.9985ZM52.4146 89.9995V84.5005H51.1666V83.6815H52.4146V83.4605C52.4146 82.6198 52.6226 81.9828 53.0386 81.5495C53.4633 81.1162 54.1133 80.8735 54.9886 80.8215L55.4956 80.7955L55.5866 81.6015L54.9886 81.6405C54.4513 81.6838 54.0613 81.8442 53.8186 82.1215C53.5846 82.3988 53.4676 82.8018 53.4676 83.3305V83.6815H55.2876V84.5005H53.4676V89.9995H52.4146ZM58.3426 90.1165C57.7013 90.1165 57.216 89.9302 56.8866 89.5575C56.566 89.1762 56.4056 88.6258 56.4056 87.9065V80.8345H57.4586V87.8285C57.4586 88.7558 57.827 89.2195 58.5636 89.2195C58.7803 89.2195 58.9753 89.1935 59.1486 89.1415L59.1226 90.0255C58.854 90.0862 58.594 90.1165 58.3426 90.1165ZM62.8149 90.1165C62.1996 90.1165 61.6666 89.9822 61.2159 89.7135C60.7653 89.4448 60.4143 89.0678 60.1629 88.5825C59.9203 88.0885 59.7989 87.5078 59.7989 86.8405C59.7989 86.1732 59.9203 85.5968 60.1629 85.1115C60.4143 84.6175 60.7653 84.2362 61.2159 83.9675C61.6666 83.6988 62.1996 83.5645 62.8149 83.5645C63.4216 83.5645 63.9503 83.6988 64.4009 83.9675C64.8603 84.2362 65.2113 84.6175 65.4539 85.1115C65.7053 85.5968 65.8309 86.1732 65.8309 86.8405C65.8309 87.5078 65.7053 88.0885 65.4539 88.5825C65.2113 89.0678 64.8603 89.4448 64.4009 89.7135C63.9503 89.9822 63.4216 90.1165 62.8149 90.1165ZM62.8149 89.2715C63.4043 89.2715 63.8766 89.0635 64.2319 88.6475C64.5873 88.2228 64.7649 87.6205 64.7649 86.8405C64.7649 86.0518 64.5873 85.4495 64.2319 85.0335C63.8766 84.6175 63.4043 84.4095 62.8149 84.4095C62.2169 84.4095 61.7403 84.6175 61.3849 85.0335C61.0383 85.4495 60.8649 86.0518 60.8649 86.8405C60.8649 87.6205 61.0383 88.2228 61.3849 88.6475C61.7403 89.0635 62.2169 89.2715 62.8149 89.2715ZM70.0386 90.1165C69.4232 90.1165 68.8902 89.9822 68.4396 89.7135C67.9889 89.4448 67.6379 89.0678 67.3866 88.5825C67.1439 88.0885 67.0226 87.5078 67.0226 86.8405C67.0226 86.1732 67.1439 85.5968 67.3866 85.1115C67.6379 84.6175 67.9889 84.2362 68.4396 83.9675C68.8902 83.6988 69.4232 83.5645 70.0386 83.5645C70.6452 83.5645 71.1739 83.6988 71.6246 83.9675C72.0839 84.2362 72.4349 84.6175 72.6776 85.1115C72.9289 85.5968 73.0546 86.1732 73.0546 86.8405C73.0546 87.5078 72.9289 88.0885 72.6776 88.5825C72.4349 89.0678 72.0839 89.4448 71.6246 89.7135C71.1739 89.9822 70.6452 90.1165 70.0386 90.1165ZM70.0386 89.2715C70.6279 89.2715 71.1002 89.0635 71.4556 88.6475C71.8109 88.2228 71.9886 87.6205 71.9886 86.8405C71.9886 86.0518 71.8109 85.4495 71.4556 85.0335C71.1002 84.6175 70.6279 84.4095 70.0386 84.4095C69.4406 84.4095 68.9639 84.6175 68.6086 85.0335C68.2619 85.4495 68.0886 86.0518 68.0886 86.8405C68.0886 87.6205 68.2619 88.2228 68.6086 88.6475C68.9639 89.0635 69.4406 89.2715 70.0386 89.2715ZM74.6362 89.9995V83.6815H75.6632V84.8125C76.0012 84.0498 76.6945 83.6295 77.7432 83.5515L78.1202 83.5125L78.1982 84.4225L77.5352 84.5005C76.9372 84.5525 76.4822 84.7432 76.1702 85.0725C75.8582 85.3932 75.7022 85.8352 75.7022 86.3985V89.9995H74.6362ZM79.1654 82.1085V80.9255H80.4654V82.1085H79.1654ZM79.2954 89.9995V83.6815H80.3484V89.9995H79.2954ZM82.3169 89.9995V83.6815H83.3439V84.7605C83.5519 84.3618 83.8465 84.0628 84.2279 83.8635C84.6092 83.6642 85.0382 83.5645 85.5149 83.5645C87.0142 83.5645 87.7639 84.3965 87.7639 86.0605V89.9995H86.7109V86.1255C86.7109 85.5362 86.5939 85.1072 86.3599 84.8385C86.1345 84.5612 85.7705 84.4225 85.2679 84.4225C84.6872 84.4225 84.2235 84.6045 83.8769 84.9685C83.5389 85.3238 83.3699 85.8005 83.3699 86.3985V89.9995H82.3169ZM92.5005 92.4565C91.9545 92.4565 91.4389 92.3828 90.9535 92.2355C90.4769 92.0968 90.0522 91.8845 89.6795 91.5985L90.0305 90.8315C90.4205 91.1088 90.8062 91.3082 91.1875 91.4295C91.5775 91.5508 91.9979 91.6115 92.4485 91.6115C93.6965 91.6115 94.3205 90.9702 94.3205 89.6875V88.5695C94.1385 88.9682 93.8525 89.2845 93.4625 89.5185C93.0812 89.7438 92.6435 89.8565 92.1495 89.8565C91.5689 89.8565 91.0662 89.7222 90.6415 89.4535C90.2169 89.1848 89.8875 88.8165 89.6535 88.3485C89.4282 87.8718 89.3155 87.3215 89.3155 86.6975C89.3155 86.0735 89.4282 85.5275 89.6535 85.0595C89.8875 84.5828 90.2169 84.2145 90.6415 83.9545C91.0662 83.6945 91.5689 83.5645 92.1495 83.5645C92.6435 83.5645 93.0812 83.6772 93.4625 83.9025C93.8525 84.1278 94.1385 84.4355 94.3205 84.8255V83.6815H95.3475V89.5445C95.3475 90.5152 95.1049 91.2432 94.6195 91.7285C94.1429 92.2138 93.4365 92.4565 92.5005 92.4565ZM92.3445 88.9985C92.9512 88.9985 93.4322 88.7905 93.7875 88.3745C94.1429 87.9585 94.3205 87.3995 94.3205 86.6975C94.3205 85.9955 94.1429 85.4408 93.7875 85.0335C93.4322 84.6175 92.9512 84.4095 92.3445 84.4095C91.7465 84.4095 91.2699 84.6175 90.9145 85.0335C90.5592 85.4408 90.3815 85.9955 90.3815 86.6975C90.3815 87.3995 90.5592 87.9585 90.9145 88.3745C91.2699 88.7905 91.7465 88.9985 92.3445 88.9985ZM2.40576 115.856C1.98109 115.856 1.59109 115.756 1.23576 115.557C0.880423 115.349 0.594423 115.071 0.377756 114.725C0.161089 114.378 0.0527559 113.988 0.0527559 113.555C0.0527559 113.156 0.152423 112.783 0.351756 112.437C0.559756 112.081 0.841423 111.795 1.19676 111.579C1.55209 111.353 1.95509 111.241 2.40576 111.241C2.82176 111.241 3.20742 111.34 3.56276 111.54C3.92676 111.739 4.21709 112.016 4.43376 112.372C4.65042 112.718 4.75876 113.113 4.75876 113.555C4.75876 113.979 4.65042 114.365 4.43376 114.712C4.22576 115.058 3.94409 115.336 3.58876 115.544C3.23342 115.752 2.83909 115.856 2.40576 115.856ZM10.287 117V107.835H13.914C14.902 107.835 15.656 108.064 16.176 108.524C16.7047 108.983 16.969 109.637 16.969 110.487C16.969 111.163 16.7827 111.717 16.41 112.151C16.046 112.584 15.526 112.866 14.85 112.996C15.2487 113.134 15.591 113.472 15.877 114.01L17.489 117H16.319L14.733 114.062C14.5337 113.698 14.304 113.451 14.044 113.321C13.784 113.191 13.4417 113.126 13.017 113.126H11.353V117H10.287ZM11.353 112.281H13.758C15.1967 112.281 15.916 111.683 15.916 110.487C15.916 109.308 15.1967 108.719 13.758 108.719H11.353V112.281ZM21.5476 117.117C20.551 117.117 19.7623 116.826 19.1816 116.246C18.601 115.656 18.3106 114.859 18.3106 113.854C18.3106 113.204 18.4406 112.632 18.7006 112.138C18.9606 111.635 19.316 111.249 19.7666 110.981C20.226 110.703 20.7546 110.565 21.3526 110.565C22.2106 110.565 22.8823 110.842 23.3676 111.397C23.853 111.943 24.0956 112.697 24.0956 113.659V114.062H19.3376C19.3723 114.781 19.5803 115.331 19.9616 115.713C20.343 116.085 20.8716 116.272 21.5476 116.272C21.929 116.272 22.293 116.215 22.6396 116.103C22.9863 115.981 23.3156 115.786 23.6276 115.518L23.9916 116.259C23.7056 116.527 23.3416 116.74 22.8996 116.896C22.4576 117.043 22.007 117.117 21.5476 117.117ZM21.3786 111.345C20.7806 111.345 20.3083 111.531 19.9616 111.904C19.615 112.276 19.4113 112.766 19.3506 113.373H23.1856C23.1596 112.731 22.9906 112.233 22.6786 111.878C22.3753 111.522 21.942 111.345 21.3786 111.345ZM25.6196 119.34V110.682H26.6466V111.813C26.8373 111.423 27.1189 111.119 27.4916 110.903C27.8729 110.677 28.3149 110.565 28.8176 110.565C29.3809 110.565 29.8706 110.699 30.2866 110.968C30.7113 111.228 31.0363 111.605 31.2616 112.099C31.4956 112.584 31.6126 113.165 31.6126 113.841C31.6126 114.508 31.4956 115.089 31.2616 115.583C31.0363 116.068 30.7113 116.445 30.2866 116.714C29.8706 116.982 29.3809 117.117 28.8176 117.117C28.3323 117.117 27.8989 117.008 27.5176 116.792C27.1363 116.575 26.8546 116.276 26.6726 115.895V119.34H25.6196ZM28.5966 116.272C29.1859 116.272 29.6583 116.064 30.0136 115.648C30.3689 115.223 30.5466 114.621 30.5466 113.841C30.5466 113.052 30.3689 112.45 30.0136 112.034C29.6583 111.618 29.1859 111.41 28.5966 111.41C28.0073 111.41 27.5349 111.618 27.1796 112.034C26.8243 112.45 26.6466 113.052 26.6466 113.841C26.6466 114.621 26.8243 115.223 27.1796 115.648C27.5349 116.064 28.0073 116.272 28.5966 116.272ZM35.1357 117.117C34.4944 117.117 34.009 116.93 33.6797 116.558C33.359 116.176 33.1987 115.626 33.1987 114.907V107.835H34.2517V114.829C34.2517 115.756 34.62 116.22 35.3567 116.22C35.5734 116.22 35.7684 116.194 35.9417 116.142L35.9157 117.026C35.647 117.086 35.387 117.117 35.1357 117.117ZM39.0344 117.117C38.601 117.117 38.211 117.034 37.8644 116.87C37.5264 116.696 37.2577 116.462 37.0584 116.168C36.859 115.873 36.7594 115.544 36.7594 115.18C36.7594 114.72 36.8764 114.356 37.1104 114.088C37.353 113.819 37.7474 113.628 38.2934 113.516C38.848 113.394 39.602 113.334 40.5554 113.334H40.9714V112.931C40.9714 112.393 40.8587 112.008 40.6334 111.774C40.4167 111.531 40.0657 111.41 39.5804 111.41C39.199 111.41 38.8307 111.466 38.4754 111.579C38.12 111.683 37.756 111.856 37.3834 112.099L37.0194 111.332C37.3487 111.098 37.7474 110.911 38.2154 110.773C38.692 110.634 39.147 110.565 39.5804 110.565C40.395 110.565 40.9974 110.764 41.3874 111.163C41.786 111.561 41.9854 112.181 41.9854 113.022V117H40.9974V115.908C40.8327 116.28 40.577 116.575 40.2304 116.792C39.8924 117.008 39.4937 117.117 39.0344 117.117ZM39.2034 116.324C39.7234 116.324 40.148 116.146 40.4774 115.791C40.8067 115.427 40.9714 114.967 40.9714 114.413V114.023H40.5684C39.8664 114.023 39.3117 114.057 38.9044 114.127C38.5057 114.187 38.224 114.3 38.0594 114.465C37.9034 114.621 37.8254 114.837 37.8254 115.115C37.8254 115.47 37.9467 115.76 38.1894 115.986C38.4407 116.211 38.7787 116.324 39.2034 116.324ZM46.6169 117.117C45.9843 117.117 45.4383 116.982 44.9789 116.714C44.5196 116.436 44.1643 116.051 43.9129 115.557C43.6703 115.054 43.5489 114.469 43.5489 113.802C43.5489 112.796 43.8219 112.008 44.3679 111.436C44.9139 110.855 45.6636 110.565 46.6169 110.565C47.0069 110.565 47.3926 110.634 47.7739 110.773C48.1553 110.911 48.4716 111.106 48.7229 111.358L48.3589 112.125C48.1076 111.882 47.8303 111.704 47.5269 111.592C47.2323 111.479 46.9506 111.423 46.6819 111.423C46.0233 111.423 45.5163 111.631 45.1609 112.047C44.8056 112.454 44.6279 113.043 44.6279 113.815C44.6279 114.569 44.8056 115.167 45.1609 115.609C45.5163 116.042 46.0233 116.259 46.6819 116.259C46.9506 116.259 47.2323 116.202 47.5269 116.09C47.8303 115.977 48.1076 115.795 48.3589 115.544L48.7229 116.311C48.4716 116.562 48.1509 116.761 47.7609 116.909C47.3796 117.047 46.9983 117.117 46.6169 117.117ZM49.8265 109.109V107.926H51.1265V109.109H49.8265ZM49.9565 117V110.682H51.0095V117H49.9565ZM52.978 117V110.682H54.005V111.761C54.213 111.362 54.5077 111.063 54.889 110.864C55.2703 110.664 55.6993 110.565 56.176 110.565C57.6753 110.565 58.425 111.397 58.425 113.061V117H57.372V113.126C57.372 112.536 57.255 112.107 57.021 111.839C56.7957 111.561 56.4317 111.423 55.929 111.423C55.3483 111.423 54.8847 111.605 54.538 111.969C54.2 112.324 54.031 112.801 54.031 113.399V117H52.978ZM63.1617 119.457C62.6157 119.457 62.1 119.383 61.6147 119.236C61.138 119.097 60.7133 118.885 60.3407 118.599L60.6917 117.832C61.0817 118.109 61.4673 118.308 61.8487 118.43C62.2387 118.551 62.659 118.612 63.1097 118.612C64.3577 118.612 64.9817 117.97 64.9817 116.688V115.57C64.7997 115.968 64.5137 116.285 64.1237 116.519C63.7423 116.744 63.3047 116.857 62.8107 116.857C62.23 116.857 61.7273 116.722 61.3027 116.454C60.878 116.185 60.5487 115.817 60.3147 115.349C60.0893 114.872 59.9767 114.322 59.9767 113.698C59.9767 113.074 60.0893 112.528 60.3147 112.06C60.5487 111.583 60.878 111.215 61.3027 110.955C61.7273 110.695 62.23 110.565 62.8107 110.565C63.3047 110.565 63.7423 110.677 64.1237 110.903C64.5137 111.128 64.7997 111.436 64.9817 111.826V110.682H66.0087V116.545C66.0087 117.515 65.766 118.243 65.2807 118.729C64.804 119.214 64.0977 119.457 63.1617 119.457ZM63.0057 115.999C63.6123 115.999 64.0933 115.791 64.4487 115.375C64.804 114.959 64.9817 114.4 64.9817 113.698C64.9817 112.996 64.804 112.441 64.4487 112.034C64.0933 111.618 63.6123 111.41 63.0057 111.41C62.4077 111.41 61.931 111.618 61.5757 112.034C61.2203 112.441 61.0427 112.996 61.0427 113.698C61.0427 114.4 61.2203 114.959 61.5757 115.375C61.931 115.791 62.4077 115.999 63.0057 115.999ZM71.3227 119.34V110.682H72.3497V111.813C72.5404 111.423 72.8221 111.119 73.1947 110.903C73.5761 110.677 74.0181 110.565 74.5207 110.565C75.0841 110.565 75.5737 110.699 75.9897 110.968C76.4144 111.228 76.7394 111.605 76.9647 112.099C77.1987 112.584 77.3157 113.165 77.3157 113.841C77.3157 114.508 77.1987 115.089 76.9647 115.583C76.7394 116.068 76.4144 116.445 75.9897 116.714C75.5737 116.982 75.0841 117.117 74.5207 117.117C74.0354 117.117 73.6021 117.008 73.2207 116.792C72.8394 116.575 72.5577 116.276 72.3757 115.895V119.34H71.3227ZM74.2997 116.272C74.8891 116.272 75.3614 116.064 75.7167 115.648C76.0721 115.223 76.2497 114.621 76.2497 113.841C76.2497 113.052 76.0721 112.45 75.7167 112.034C75.3614 111.618 74.8891 111.41 74.2997 111.41C73.7104 111.41 73.2381 111.618 72.8827 112.034C72.5274 112.45 72.3497 113.052 72.3497 113.841C72.3497 114.621 72.5274 115.223 72.8827 115.648C73.2381 116.064 73.7104 116.272 74.2997 116.272ZM80.8388 117.117C80.1975 117.117 79.7122 116.93 79.3828 116.558C79.0622 116.176 78.9018 115.626 78.9018 114.907V107.835H79.9548V114.829C79.9548 115.756 80.3232 116.22 81.0598 116.22C81.2765 116.22 81.4715 116.194 81.6448 116.142L81.6188 117.026C81.3502 117.086 81.0902 117.117 80.8388 117.117ZM84.9845 117.117C83.4678 117.117 82.7095 116.28 82.7095 114.608V110.682H83.7625V114.595C83.7625 115.158 83.8752 115.574 84.1005 115.843C84.3345 116.111 84.6985 116.246 85.1925 116.246C85.7298 116.246 86.1675 116.068 86.5055 115.713C86.8435 115.349 87.0125 114.868 87.0125 114.27V110.682H88.0655V117H87.0385V115.934C86.8392 116.315 86.5575 116.61 86.1935 116.818C85.8382 117.017 85.4352 117.117 84.9845 117.117ZM90.0616 117V110.682H91.0886V111.748C91.2793 111.366 91.5436 111.076 91.8816 110.877C92.2196 110.669 92.6139 110.565 93.0646 110.565C94.0526 110.565 94.6853 110.994 94.9626 111.852C95.1533 111.453 95.4349 111.141 95.8076 110.916C96.1803 110.682 96.6093 110.565 97.0946 110.565C98.4986 110.565 99.2006 111.397 99.2006 113.061V117H98.1476V113.113C98.1476 112.532 98.0436 112.107 97.8356 111.839C97.6363 111.561 97.3026 111.423 96.8346 111.423C96.3233 111.423 95.9159 111.605 95.6126 111.969C95.3093 112.333 95.1576 112.818 95.1576 113.425V117H94.1046V113.113C94.1046 112.532 94.0006 112.107 93.7926 111.839C93.5933 111.561 93.2596 111.423 92.7916 111.423C92.2716 111.423 91.8599 111.605 91.5566 111.969C91.2619 112.333 91.1146 112.818 91.1146 113.425V117H90.0616ZM104.367 117.117C103.865 117.117 103.423 117.004 103.041 116.779C102.669 116.553 102.387 116.246 102.196 115.856V117H101.169V107.835H102.222V111.774C102.404 111.401 102.686 111.106 103.067 110.89C103.449 110.673 103.882 110.565 104.367 110.565C104.931 110.565 105.42 110.699 105.836 110.968C106.261 111.228 106.586 111.605 106.811 112.099C107.045 112.584 107.162 113.165 107.162 113.841C107.162 114.508 107.045 115.089 106.811 115.583C106.586 116.068 106.261 116.445 105.836 116.714C105.42 116.982 104.931 117.117 104.367 117.117ZM104.146 116.272C104.736 116.272 105.208 116.064 105.563 115.648C105.919 115.223 106.096 114.621 106.096 113.841C106.096 113.052 105.919 112.45 105.563 112.034C105.208 111.618 104.736 111.41 104.146 111.41C103.557 111.41 103.085 111.618 102.729 112.034C102.374 112.45 102.196 113.052 102.196 113.841C102.196 114.621 102.374 115.223 102.729 115.648C103.085 116.064 103.557 116.272 104.146 116.272ZM108.618 109.109V107.926H109.918V109.109H108.618ZM108.748 117V110.682H109.801V117H108.748ZM111.77 117V110.682H112.797V111.761C113.005 111.362 113.3 111.063 113.681 110.864C114.062 110.664 114.491 110.565 114.968 110.565C116.467 110.565 117.217 111.397 117.217 113.061V117H116.164V113.126C116.164 112.536 116.047 112.107 115.813 111.839C115.588 111.561 115.224 111.423 114.721 111.423C114.14 111.423 113.677 111.605 113.33 111.969C112.992 112.324 112.823 112.801 112.823 113.399V117H111.77ZM121.954 119.457C121.408 119.457 120.892 119.383 120.407 119.236C119.93 119.097 119.505 118.885 119.133 118.599L119.484 117.832C119.874 118.109 120.259 118.308 120.641 118.43C121.031 118.551 121.451 118.612 121.902 118.612C123.15 118.612 123.774 117.97 123.774 116.688V115.57C123.592 115.968 123.306 116.285 122.916 116.519C122.534 116.744 122.097 116.857 121.603 116.857C121.022 116.857 120.519 116.722 120.095 116.454C119.67 116.185 119.341 115.817 119.107 115.349C118.881 114.872 118.769 114.322 118.769 113.698C118.769 113.074 118.881 112.528 119.107 112.06C119.341 111.583 119.67 111.215 120.095 110.955C120.519 110.695 121.022 110.565 121.603 110.565C122.097 110.565 122.534 110.677 122.916 110.903C123.306 111.128 123.592 111.436 123.774 111.826V110.682H124.801V116.545C124.801 117.515 124.558 118.243 124.073 118.729C123.596 119.214 122.89 119.457 121.954 119.457ZM121.798 115.999C122.404 115.999 122.885 115.791 123.241 115.375C123.596 114.959 123.774 114.4 123.774 113.698C123.774 112.996 123.596 112.441 123.241 112.034C122.885 111.618 122.404 111.41 121.798 111.41C121.2 111.41 120.723 111.618 120.368 112.034C120.012 112.441 119.835 112.996 119.835 113.698C119.835 114.4 120.012 114.959 120.368 115.375C120.723 115.791 121.2 115.999 121.798 115.999ZM2.40576 141.856C1.98109 141.856 1.59109 141.756 1.23576 141.557C0.880423 141.349 0.594423 141.071 0.377756 140.725C0.161089 140.378 0.0527559 139.988 0.0527559 139.555C0.0527559 139.156 0.152423 138.783 0.351756 138.437C0.559756 138.081 0.841423 137.795 1.19676 137.579C1.55209 137.353 1.95509 137.241 2.40576 137.241C2.82176 137.241 3.20742 137.34 3.56276 137.54C3.92676 137.739 4.21709 138.016 4.43376 138.372C4.65042 138.718 4.75876 139.113 4.75876 139.555C4.75876 139.979 4.65042 140.365 4.43376 140.712C4.22576 141.058 3.94409 141.336 3.58876 141.544C3.23342 141.752 2.83909 141.856 2.40576 141.856ZM10.287 143V133.835H13.914C14.902 133.835 15.656 134.064 16.176 134.524C16.7047 134.983 16.969 135.637 16.969 136.487C16.969 137.163 16.7827 137.717 16.41 138.151C16.046 138.584 15.526 138.866 14.85 138.996C15.2487 139.134 15.591 139.472 15.877 140.01L17.489 143H16.319L14.733 140.062C14.5337 139.698 14.304 139.451 14.044 139.321C13.784 139.191 13.4417 139.126 13.017 139.126H11.353V143H10.287ZM11.353 138.281H13.758C15.1967 138.281 15.916 137.683 15.916 136.487C15.916 135.308 15.1967 134.719 13.758 134.719H11.353V138.281ZM21.5476 143.117C20.551 143.117 19.7623 142.826 19.1816 142.246C18.601 141.656 18.3106 140.859 18.3106 139.854C18.3106 139.204 18.4406 138.632 18.7006 138.138C18.9606 137.635 19.316 137.249 19.7666 136.981C20.226 136.703 20.7546 136.565 21.3526 136.565C22.2106 136.565 22.8823 136.842 23.3676 137.397C23.853 137.943 24.0956 138.697 24.0956 139.659V140.062H19.3376C19.3723 140.781 19.5803 141.331 19.9616 141.713C20.343 142.085 20.8716 142.272 21.5476 142.272C21.929 142.272 22.293 142.215 22.6396 142.103C22.9863 141.981 23.3156 141.786 23.6276 141.518L23.9916 142.259C23.7056 142.527 23.3416 142.74 22.8996 142.896C22.4576 143.043 22.007 143.117 21.5476 143.117ZM21.3786 137.345C20.7806 137.345 20.3083 137.531 19.9616 137.904C19.615 138.276 19.4113 138.766 19.3506 139.373H23.1856C23.1596 138.731 22.9906 138.233 22.6786 137.878C22.3753 137.522 21.942 137.345 21.3786 137.345ZM25.6196 145.34V136.682H26.6466V137.813C26.8373 137.423 27.1189 137.119 27.4916 136.903C27.8729 136.677 28.3149 136.565 28.8176 136.565C29.3809 136.565 29.8706 136.699 30.2866 136.968C30.7113 137.228 31.0363 137.605 31.2616 138.099C31.4956 138.584 31.6126 139.165 31.6126 139.841C31.6126 140.508 31.4956 141.089 31.2616 141.583C31.0363 142.068 30.7113 142.445 30.2866 142.714C29.8706 142.982 29.3809 143.117 28.8176 143.117C28.3323 143.117 27.8989 143.008 27.5176 142.792C27.1363 142.575 26.8546 142.276 26.6726 141.895V145.34H25.6196ZM28.5966 142.272C29.1859 142.272 29.6583 142.064 30.0136 141.648C30.3689 141.223 30.5466 140.621 30.5466 139.841C30.5466 139.052 30.3689 138.45 30.0136 138.034C29.6583 137.618 29.1859 137.41 28.5966 137.41C28.0073 137.41 27.5349 137.618 27.1796 138.034C26.8243 138.45 26.6466 139.052 26.6466 139.841C26.6466 140.621 26.8243 141.223 27.1796 141.648C27.5349 142.064 28.0073 142.272 28.5966 142.272ZM35.1357 143.117C34.4944 143.117 34.009 142.93 33.6797 142.558C33.359 142.176 33.1987 141.626 33.1987 140.907V133.835H34.2517V140.829C34.2517 141.756 34.62 142.22 35.3567 142.22C35.5734 142.22 35.7684 142.194 35.9417 142.142L35.9157 143.026C35.647 143.086 35.387 143.117 35.1357 143.117ZM39.0344 143.117C38.601 143.117 38.211 143.034 37.8644 142.87C37.5264 142.696 37.2577 142.462 37.0584 142.168C36.859 141.873 36.7594 141.544 36.7594 141.18C36.7594 140.72 36.8764 140.356 37.1104 140.088C37.353 139.819 37.7474 139.628 38.2934 139.516C38.848 139.394 39.602 139.334 40.5554 139.334H40.9714V138.931C40.9714 138.393 40.8587 138.008 40.6334 137.774C40.4167 137.531 40.0657 137.41 39.5804 137.41C39.199 137.41 38.8307 137.466 38.4754 137.579C38.12 137.683 37.756 137.856 37.3834 138.099L37.0194 137.332C37.3487 137.098 37.7474 136.911 38.2154 136.773C38.692 136.634 39.147 136.565 39.5804 136.565C40.395 136.565 40.9974 136.764 41.3874 137.163C41.786 137.561 41.9854 138.181 41.9854 139.022V143H40.9974V141.908C40.8327 142.28 40.577 142.575 40.2304 142.792C39.8924 143.008 39.4937 143.117 39.0344 143.117ZM39.2034 142.324C39.7234 142.324 40.148 142.146 40.4774 141.791C40.8067 141.427 40.9714 140.967 40.9714 140.413V140.023H40.5684C39.8664 140.023 39.3117 140.057 38.9044 140.127C38.5057 140.187 38.224 140.3 38.0594 140.465C37.9034 140.621 37.8254 140.837 37.8254 141.115C37.8254 141.47 37.9467 141.76 38.1894 141.986C38.4407 142.211 38.7787 142.324 39.2034 142.324ZM46.6169 143.117C45.9843 143.117 45.4383 142.982 44.9789 142.714C44.5196 142.436 44.1643 142.051 43.9129 141.557C43.6703 141.054 43.5489 140.469 43.5489 139.802C43.5489 138.796 43.8219 138.008 44.3679 137.436C44.9139 136.855 45.6636 136.565 46.6169 136.565C47.0069 136.565 47.3926 136.634 47.7739 136.773C48.1553 136.911 48.4716 137.106 48.7229 137.358L48.3589 138.125C48.1076 137.882 47.8303 137.704 47.5269 137.592C47.2323 137.479 46.9506 137.423 46.6819 137.423C46.0233 137.423 45.5163 137.631 45.1609 138.047C44.8056 138.454 44.6279 139.043 44.6279 139.815C44.6279 140.569 44.8056 141.167 45.1609 141.609C45.5163 142.042 46.0233 142.259 46.6819 142.259C46.9506 142.259 47.2323 142.202 47.5269 142.09C47.8303 141.977 48.1076 141.795 48.3589 141.544L48.7229 142.311C48.4716 142.562 48.1509 142.761 47.7609 142.909C47.3796 143.047 46.9983 143.117 46.6169 143.117ZM49.8265 135.109V133.926H51.1265V135.109H49.8265ZM49.9565 143V136.682H51.0095V143H49.9565ZM52.978 143V136.682H54.005V137.761C54.213 137.362 54.5077 137.063 54.889 136.864C55.2703 136.664 55.6993 136.565 56.176 136.565C57.6753 136.565 58.425 137.397 58.425 139.061V143H57.372V139.126C57.372 138.536 57.255 138.107 57.021 137.839C56.7957 137.561 56.4317 137.423 55.929 137.423C55.3483 137.423 54.8847 137.605 54.538 137.969C54.2 138.324 54.031 138.801 54.031 139.399V143H52.978ZM63.1617 145.457C62.6157 145.457 62.1 145.383 61.6147 145.236C61.138 145.097 60.7133 144.885 60.3407 144.599L60.6917 143.832C61.0817 144.109 61.4673 144.308 61.8487 144.43C62.2387 144.551 62.659 144.612 63.1097 144.612C64.3577 144.612 64.9817 143.97 64.9817 142.688V141.57C64.7997 141.968 64.5137 142.285 64.1237 142.519C63.7423 142.744 63.3047 142.857 62.8107 142.857C62.23 142.857 61.7273 142.722 61.3027 142.454C60.878 142.185 60.5487 141.817 60.3147 141.349C60.0893 140.872 59.9767 140.322 59.9767 139.698C59.9767 139.074 60.0893 138.528 60.3147 138.06C60.5487 137.583 60.878 137.215 61.3027 136.955C61.7273 136.695 62.23 136.565 62.8107 136.565C63.3047 136.565 63.7423 136.677 64.1237 136.903C64.5137 137.128 64.7997 137.436 64.9817 137.826V136.682H66.0087V142.545C66.0087 143.515 65.766 144.243 65.2807 144.729C64.804 145.214 64.0977 145.457 63.1617 145.457ZM63.0057 141.999C63.6123 141.999 64.0933 141.791 64.4487 141.375C64.804 140.959 64.9817 140.4 64.9817 139.698C64.9817 138.996 64.804 138.441 64.4487 138.034C64.0933 137.618 63.6123 137.41 63.0057 137.41C62.4077 137.41 61.931 137.618 61.5757 138.034C61.2203 138.441 61.0427 138.996 61.0427 139.698C61.0427 140.4 61.2203 140.959 61.5757 141.375C61.931 141.791 62.4077 141.999 63.0057 141.999ZM73.4547 143.117C72.9607 143.117 72.4927 143.047 72.0507 142.909C71.6087 142.77 71.2447 142.575 70.9587 142.324L71.2967 141.583C71.6087 141.834 71.9511 142.02 72.3237 142.142C72.7051 142.254 73.0907 142.311 73.4807 142.311C73.9747 142.311 74.3474 142.22 74.5987 142.038C74.8501 141.856 74.9757 141.609 74.9757 141.297C74.9757 141.054 74.8934 140.863 74.7287 140.725C74.5641 140.577 74.3041 140.465 73.9487 140.387L72.7657 140.127C71.6911 139.893 71.1537 139.338 71.1537 138.463C71.1537 137.891 71.3791 137.431 71.8297 137.085C72.2891 136.738 72.8871 136.565 73.6237 136.565C74.0571 136.565 74.4687 136.634 74.8587 136.773C75.2574 136.903 75.5867 137.098 75.8467 137.358L75.4957 138.099C75.2444 137.865 74.9497 137.687 74.6117 137.566C74.2824 137.436 73.9531 137.371 73.6237 137.371C73.1384 137.371 72.7701 137.466 72.5187 137.657C72.2674 137.847 72.1417 138.099 72.1417 138.411C72.1417 138.896 72.4624 139.208 73.1037 139.347L74.2867 139.594C74.8414 139.715 75.2617 139.91 75.5477 140.179C75.8337 140.439 75.9767 140.794 75.9767 141.245C75.9767 141.825 75.7471 142.285 75.2877 142.623C74.8284 142.952 74.2174 143.117 73.4547 143.117ZM80.2075 143.117C79.5922 143.117 79.0592 142.982 78.6085 142.714C78.1578 142.445 77.8068 142.068 77.5555 141.583C77.3128 141.089 77.1915 140.508 77.1915 139.841C77.1915 139.173 77.3128 138.597 77.5555 138.112C77.8068 137.618 78.1578 137.236 78.6085 136.968C79.0592 136.699 79.5922 136.565 80.2075 136.565C80.8142 136.565 81.3428 136.699 81.7935 136.968C82.2528 137.236 82.6038 137.618 82.8465 138.112C83.0978 138.597 83.2235 139.173 83.2235 139.841C83.2235 140.508 83.0978 141.089 82.8465 141.583C82.6038 142.068 82.2528 142.445 81.7935 142.714C81.3428 142.982 80.8142 143.117 80.2075 143.117ZM80.2075 142.272C80.7968 142.272 81.2692 142.064 81.6245 141.648C81.9798 141.223 82.1575 140.621 82.1575 139.841C82.1575 139.052 81.9798 138.45 81.6245 138.034C81.2692 137.618 80.7968 137.41 80.2075 137.41C79.6095 137.41 79.1328 137.618 78.7775 138.034C78.4308 138.45 78.2575 139.052 78.2575 139.841C78.2575 140.621 78.4308 141.223 78.7775 141.648C79.1328 142.064 79.6095 142.272 80.2075 142.272ZM87.4831 143.117C86.8505 143.117 86.3045 142.982 85.8451 142.714C85.3858 142.436 85.0305 142.051 84.7791 141.557C84.5365 141.054 84.4151 140.469 84.4151 139.802C84.4151 138.796 84.6881 138.008 85.2341 137.436C85.7801 136.855 86.5298 136.565 87.4831 136.565C87.8731 136.565 88.2588 136.634 88.6401 136.773C89.0215 136.911 89.3378 137.106 89.5891 137.358L89.2251 138.125C88.9738 137.882 88.6965 137.704 88.3931 137.592C88.0985 137.479 87.8168 137.423 87.5481 137.423C86.8895 137.423 86.3825 137.631 86.0271 138.047C85.6718 138.454 85.4941 139.043 85.4941 139.815C85.4941 140.569 85.6718 141.167 86.0271 141.609C86.3825 142.042 86.8895 142.259 87.5481 142.259C87.8168 142.259 88.0985 142.202 88.3931 142.09C88.6965 141.977 88.9738 141.795 89.2251 141.544L89.5891 142.311C89.3378 142.562 89.0171 142.761 88.6271 142.909C88.2458 143.047 87.8645 143.117 87.4831 143.117ZM90.8227 143V133.835H91.8757V139.49H91.9017L94.8267 136.682H96.1657L92.9937 139.724L96.4387 143H95.0997L91.9017 140.036H91.8757V143H90.8227ZM100.005 143.117C99.008 143.117 98.2193 142.826 97.6387 142.246C97.058 141.656 96.7677 140.859 96.7677 139.854C96.7677 139.204 96.8977 138.632 97.1577 138.138C97.4177 137.635 97.773 137.249 98.2237 136.981C98.683 136.703 99.2117 136.565 99.8097 136.565C100.668 136.565 101.339 136.842 101.825 137.397C102.31 137.943 102.553 138.697 102.553 139.659V140.062H97.7947C97.8293 140.781 98.0373 141.331 98.4187 141.713C98.8 142.085 99.3287 142.272 100.005 142.272C100.386 142.272 100.75 142.215 101.097 142.103C101.443 141.981 101.773 141.786 102.085 141.518L102.449 142.259C102.163 142.527 101.799 142.74 101.357 142.896C100.915 143.043 100.464 143.117 100.005 143.117ZM99.8357 137.345C99.2377 137.345 98.7653 137.531 98.4187 137.904C98.072 138.276 97.8683 138.766 97.8077 139.373H101.643C101.617 138.731 101.448 138.233 101.136 137.878C100.832 137.522 100.399 137.345 99.8357 137.345ZM106.612 143.117C105.866 143.117 105.307 142.922 104.935 142.532C104.562 142.133 104.376 141.561 104.376 140.816V137.501H103.141V136.682H104.376V134.745H105.429V136.682H107.431V137.501H105.429V140.712C105.429 141.206 105.533 141.583 105.741 141.843C105.949 142.094 106.287 142.22 106.755 142.22C106.893 142.22 107.032 142.202 107.171 142.168C107.309 142.133 107.435 142.098 107.548 142.064L107.73 142.87C107.617 142.93 107.452 142.987 107.236 143.039C107.019 143.091 106.811 143.117 106.612 143.117ZM110.754 143.117C110.26 143.117 109.792 143.047 109.35 142.909C108.908 142.77 108.544 142.575 108.258 142.324L108.596 141.583C108.908 141.834 109.25 142.02 109.623 142.142C110.004 142.254 110.39 142.311 110.78 142.311C111.274 142.311 111.646 142.22 111.898 142.038C112.149 141.856 112.275 141.609 112.275 141.297C112.275 141.054 112.192 140.863 112.028 140.725C111.863 140.577 111.603 140.465 111.248 140.387L110.065 140.127C108.99 139.893 108.453 139.338 108.453 138.463C108.453 137.891 108.678 137.431 109.129 137.085C109.588 136.738 110.186 136.565 110.923 136.565C111.356 136.565 111.768 136.634 112.158 136.773C112.556 136.903 112.886 137.098 113.146 137.358L112.795 138.099C112.543 137.865 112.249 137.687 111.911 137.566C111.581 137.436 111.252 137.371 110.923 137.371C110.437 137.371 110.069 137.466 109.818 137.657C109.566 137.847 109.441 138.099 109.441 138.411C109.441 138.896 109.761 139.208 110.403 139.347L111.586 139.594C112.14 139.715 112.561 139.91 112.847 140.179C113.133 140.439 113.276 140.794 113.276 141.245C113.276 141.825 113.046 142.285 112.587 142.623C112.127 142.952 111.516 143.117 110.754 143.117ZM120.208 143.117C119.775 143.117 119.385 143.034 119.038 142.87C118.7 142.696 118.432 142.462 118.232 142.168C118.033 141.873 117.933 141.544 117.933 141.18C117.933 140.72 118.05 140.356 118.284 140.088C118.527 139.819 118.921 139.628 119.467 139.516C120.022 139.394 120.776 139.334 121.729 139.334H122.145V138.931C122.145 138.393 122.033 138.008 121.807 137.774C121.591 137.531 121.24 137.41 120.754 137.41C120.373 137.41 120.005 137.466 119.649 137.579C119.294 137.683 118.93 137.856 118.557 138.099L118.193 137.332C118.523 137.098 118.921 136.911 119.389 136.773C119.866 136.634 120.321 136.565 120.754 136.565C121.569 136.565 122.171 136.764 122.561 137.163C122.96 137.561 123.159 138.181 123.159 139.022V143H122.171V141.908C122.007 142.28 121.751 142.575 121.404 142.792C121.066 143.008 120.668 143.117 120.208 143.117ZM120.377 142.324C120.897 142.324 121.322 142.146 121.651 141.791C121.981 141.427 122.145 140.967 122.145 140.413V140.023H121.742C121.04 140.023 120.486 140.057 120.078 140.127C119.68 140.187 119.398 140.3 119.233 140.465C119.077 140.621 118.999 140.837 118.999 141.115C118.999 141.47 119.121 141.76 119.363 141.986C119.615 142.211 119.953 142.324 120.377 142.324ZM125.113 143V136.682H126.14V137.761C126.348 137.362 126.642 137.063 127.024 136.864C127.405 136.664 127.834 136.565 128.311 136.565C129.81 136.565 130.56 137.397 130.56 139.061V143H129.507V139.126C129.507 138.536 129.39 138.107 129.156 137.839C128.93 137.561 128.566 137.423 128.064 137.423C127.483 137.423 127.019 137.605 126.673 137.969C126.335 138.324 126.166 138.801 126.166 139.399V143H125.113ZM134.906 143.117C134.343 143.117 133.849 142.982 133.424 142.714C133.008 142.445 132.683 142.068 132.449 141.583C132.224 141.089 132.111 140.508 132.111 139.841C132.111 139.165 132.224 138.584 132.449 138.099C132.683 137.605 133.008 137.228 133.424 136.968C133.849 136.699 134.343 136.565 134.906 136.565C135.4 136.565 135.834 136.673 136.206 136.89C136.588 137.106 136.869 137.405 137.051 137.787V133.835H138.104V143H137.077V141.843C136.895 142.241 136.614 142.553 136.232 142.779C135.851 143.004 135.409 143.117 134.906 143.117ZM135.127 142.272C135.717 142.272 136.189 142.064 136.544 141.648C136.9 141.223 137.077 140.621 137.077 139.841C137.077 139.052 136.9 138.45 136.544 138.034C136.189 137.618 135.717 137.41 135.127 137.41C134.529 137.41 134.053 137.618 133.697 138.034C133.351 138.45 133.177 139.052 133.177 139.841C133.177 140.621 133.351 141.223 133.697 141.648C134.053 142.064 134.529 142.272 135.127 142.272ZM145.551 143.117C145.057 143.117 144.589 143.047 144.147 142.909C143.705 142.77 143.341 142.575 143.055 142.324L143.393 141.583C143.705 141.834 144.048 142.02 144.42 142.142C144.802 142.254 145.187 142.311 145.577 142.311C146.071 142.311 146.444 142.22 146.695 142.038C146.947 141.856 147.072 141.609 147.072 141.297C147.072 141.054 146.99 140.863 146.825 140.725C146.661 140.577 146.401 140.465 146.045 140.387L144.862 140.127C143.788 139.893 143.25 139.338 143.25 138.463C143.25 137.891 143.476 137.431 143.926 137.085C144.386 136.738 144.984 136.565 145.72 136.565C146.154 136.565 146.565 136.634 146.955 136.773C147.354 136.903 147.683 137.098 147.943 137.358L147.592 138.099C147.341 137.865 147.046 137.687 146.708 137.566C146.379 137.436 146.05 137.371 145.72 137.371C145.235 137.371 144.867 137.466 144.615 137.657C144.364 137.847 144.238 138.099 144.238 138.411C144.238 138.896 144.559 139.208 145.2 139.347L146.383 139.594C146.938 139.715 147.358 139.91 147.644 140.179C147.93 140.439 148.073 140.794 148.073 141.245C148.073 141.825 147.844 142.285 147.384 142.623C146.925 142.952 146.314 143.117 145.551 143.117ZM151.228 143L148.875 136.682H149.98L151.761 141.765L153.607 136.682H154.504L156.324 141.778L158.131 136.682H159.184L156.818 143H155.817L154.036 138.099L152.242 143H151.228ZM160.352 135.109V133.926H161.652V135.109H160.352ZM160.482 143V136.682H161.535V143H160.482ZM166.038 143.117C165.293 143.117 164.734 142.922 164.361 142.532C163.989 142.133 163.802 141.561 163.802 140.816V137.501H162.567V136.682H163.802V134.745H164.855V136.682H166.857V137.501H164.855V140.712C164.855 141.206 164.959 141.583 165.167 141.843C165.375 142.094 165.713 142.22 166.181 142.22C166.32 142.22 166.459 142.202 166.597 142.168C166.736 142.133 166.862 142.098 166.974 142.064L167.156 142.87C167.044 142.93 166.879 142.987 166.662 143.039C166.446 143.091 166.238 143.117 166.038 143.117ZM170.663 143.117C170.03 143.117 169.484 142.982 169.025 142.714C168.565 142.436 168.21 142.051 167.959 141.557C167.716 141.054 167.595 140.469 167.595 139.802C167.595 138.796 167.868 138.008 168.414 137.436C168.96 136.855 169.709 136.565 170.663 136.565C171.053 136.565 171.438 136.634 171.82 136.773C172.201 136.911 172.517 137.106 172.769 137.358L172.405 138.125C172.153 137.882 171.876 137.704 171.573 137.592C171.278 137.479 170.996 137.423 170.728 137.423C170.069 137.423 169.562 137.631 169.207 138.047C168.851 138.454 168.674 139.043 168.674 139.815C168.674 140.569 168.851 141.167 169.207 141.609C169.562 142.042 170.069 142.259 170.728 142.259C170.996 142.259 171.278 142.202 171.573 142.09C171.876 141.977 172.153 141.795 172.405 141.544L172.769 142.311C172.517 142.562 172.197 142.761 171.807 142.909C171.425 143.047 171.044 143.117 170.663 143.117ZM174.002 143V133.835H175.055V137.722C175.263 137.34 175.554 137.054 175.926 136.864C176.308 136.664 176.732 136.565 177.2 136.565C178.7 136.565 179.449 137.397 179.449 139.061V143H178.396V139.126C178.396 138.536 178.279 138.107 178.045 137.839C177.82 137.561 177.456 137.423 176.953 137.423C176.373 137.423 175.909 137.605 175.562 137.969C175.224 138.324 175.055 138.801 175.055 139.399V143H174.002ZM184.238 143.117C183.241 143.117 182.453 142.826 181.872 142.246C181.291 141.656 181.001 140.859 181.001 139.854C181.001 139.204 181.131 138.632 181.391 138.138C181.651 137.635 182.006 137.249 182.457 136.981C182.916 136.703 183.445 136.565 184.043 136.565C184.901 136.565 185.573 136.842 186.058 137.397C186.543 137.943 186.786 138.697 186.786 139.659V140.062H182.028C182.063 140.781 182.271 141.331 182.652 141.713C183.033 142.085 183.562 142.272 184.238 142.272C184.619 142.272 184.983 142.215 185.33 142.103C185.677 141.981 186.006 141.786 186.318 141.518L186.682 142.259C186.396 142.527 186.032 142.74 185.59 142.896C185.148 143.043 184.697 143.117 184.238 143.117ZM184.069 137.345C183.471 137.345 182.999 137.531 182.652 137.904C182.305 138.276 182.102 138.766 182.041 139.373H185.876C185.85 138.731 185.681 138.233 185.369 137.878C185.066 137.522 184.632 137.345 184.069 137.345ZM190.442 143.117C189.948 143.117 189.48 143.047 189.038 142.909C188.596 142.77 188.232 142.575 187.946 142.324L188.284 141.583C188.596 141.834 188.938 142.02 189.311 142.142C189.692 142.254 190.078 142.311 190.468 142.311C190.962 142.311 191.335 142.22 191.586 142.038C191.837 141.856 191.963 141.609 191.963 141.297C191.963 141.054 191.881 140.863 191.716 140.725C191.551 140.577 191.291 140.465 190.936 140.387L189.753 140.127C188.678 139.893 188.141 139.338 188.141 138.463C188.141 137.891 188.366 137.431 188.817 137.085C189.276 136.738 189.874 136.565 190.611 136.565C191.044 136.565 191.456 136.634 191.846 136.773C192.245 136.903 192.574 137.098 192.834 137.358L192.483 138.099C192.232 137.865 191.937 137.687 191.599 137.566C191.27 137.436 190.94 137.371 190.611 137.371C190.126 137.371 189.757 137.466 189.506 137.657C189.255 137.847 189.129 138.099 189.129 138.411C189.129 138.896 189.45 139.208 190.091 139.347L191.274 139.594C191.829 139.715 192.249 139.91 192.535 140.179C192.821 140.439 192.964 140.794 192.964 141.245C192.964 141.825 192.734 142.285 192.275 142.623C191.816 142.952 191.205 143.117 190.442 143.117ZM2.40576 168.856C1.98109 168.856 1.59109 168.756 1.23576 168.557C0.880423 168.349 0.594423 168.071 0.377756 167.725C0.161089 167.378 0.0527559 166.988 0.0527559 166.555C0.0527559 166.156 0.152423 165.783 0.351756 165.437C0.559756 165.081 0.841423 164.795 1.19676 164.579C1.55209 164.353 1.95509 164.241 2.40576 164.241C2.82176 164.241 3.20742 164.34 3.56276 164.54C3.92676 164.739 4.21709 165.016 4.43376 165.372C4.65042 165.718 4.75876 166.113 4.75876 166.555C4.75876 166.979 4.65042 167.365 4.43376 167.712C4.22576 168.058 3.94409 168.336 3.58876 168.544C3.23342 168.752 2.83909 168.856 2.40576 168.856ZM10.287 170V160.835H13.914C14.902 160.835 15.656 161.064 16.176 161.524C16.7047 161.983 16.969 162.637 16.969 163.487C16.969 164.163 16.7827 164.717 16.41 165.151C16.046 165.584 15.526 165.866 14.85 165.996C15.2487 166.134 15.591 166.472 15.877 167.01L17.489 170H16.319L14.733 167.062C14.5337 166.698 14.304 166.451 14.044 166.321C13.784 166.191 13.4417 166.126 13.017 166.126H11.353V170H10.287ZM11.353 165.281H13.758C15.1967 165.281 15.916 164.683 15.916 163.487C15.916 162.308 15.1967 161.719 13.758 161.719H11.353V165.281ZM21.5476 170.117C20.551 170.117 19.7623 169.826 19.1816 169.246C18.601 168.656 18.3106 167.859 18.3106 166.854C18.3106 166.204 18.4406 165.632 18.7006 165.138C18.9606 164.635 19.316 164.249 19.7666 163.981C20.226 163.703 20.7546 163.565 21.3526 163.565C22.2106 163.565 22.8823 163.842 23.3676 164.397C23.853 164.943 24.0956 165.697 24.0956 166.659V167.062H19.3376C19.3723 167.781 19.5803 168.331 19.9616 168.713C20.343 169.085 20.8716 169.272 21.5476 169.272C21.929 169.272 22.293 169.215 22.6396 169.103C22.9863 168.981 23.3156 168.786 23.6276 168.518L23.9916 169.259C23.7056 169.527 23.3416 169.74 22.8996 169.896C22.4576 170.043 22.007 170.117 21.5476 170.117ZM21.3786 164.345C20.7806 164.345 20.3083 164.531 19.9616 164.904C19.615 165.276 19.4113 165.766 19.3506 166.373H23.1856C23.1596 165.731 22.9906 165.233 22.6786 164.878C22.3753 164.522 21.942 164.345 21.3786 164.345ZM25.6196 172.34V163.682H26.6466V164.813C26.8373 164.423 27.1189 164.119 27.4916 163.903C27.8729 163.677 28.3149 163.565 28.8176 163.565C29.3809 163.565 29.8706 163.699 30.2866 163.968C30.7113 164.228 31.0363 164.605 31.2616 165.099C31.4956 165.584 31.6126 166.165 31.6126 166.841C31.6126 167.508 31.4956 168.089 31.2616 168.583C31.0363 169.068 30.7113 169.445 30.2866 169.714C29.8706 169.982 29.3809 170.117 28.8176 170.117C28.3323 170.117 27.8989 170.008 27.5176 169.792C27.1363 169.575 26.8546 169.276 26.6726 168.895V172.34H25.6196ZM28.5966 169.272C29.1859 169.272 29.6583 169.064 30.0136 168.648C30.3689 168.223 30.5466 167.621 30.5466 166.841C30.5466 166.052 30.3689 165.45 30.0136 165.034C29.6583 164.618 29.1859 164.41 28.5966 164.41C28.0073 164.41 27.5349 164.618 27.1796 165.034C26.8243 165.45 26.6466 166.052 26.6466 166.841C26.6466 167.621 26.8243 168.223 27.1796 168.648C27.5349 169.064 28.0073 169.272 28.5966 169.272ZM35.1357 170.117C34.4944 170.117 34.009 169.93 33.6797 169.558C33.359 169.176 33.1987 168.626 33.1987 167.907V160.835H34.2517V167.829C34.2517 168.756 34.62 169.22 35.3567 169.22C35.5734 169.22 35.7684 169.194 35.9417 169.142L35.9157 170.026C35.647 170.086 35.387 170.117 35.1357 170.117ZM39.0344 170.117C38.601 170.117 38.211 170.034 37.8644 169.87C37.5264 169.696 37.2577 169.462 37.0584 169.168C36.859 168.873 36.7594 168.544 36.7594 168.18C36.7594 167.72 36.8764 167.356 37.1104 167.088C37.353 166.819 37.7474 166.628 38.2934 166.516C38.848 166.394 39.602 166.334 40.5554 166.334H40.9714V165.931C40.9714 165.393 40.8587 165.008 40.6334 164.774C40.4167 164.531 40.0657 164.41 39.5804 164.41C39.199 164.41 38.8307 164.466 38.4754 164.579C38.12 164.683 37.756 164.856 37.3834 165.099L37.0194 164.332C37.3487 164.098 37.7474 163.911 38.2154 163.773C38.692 163.634 39.147 163.565 39.5804 163.565C40.395 163.565 40.9974 163.764 41.3874 164.163C41.786 164.561 41.9854 165.181 41.9854 166.022V170H40.9974V168.908C40.8327 169.28 40.577 169.575 40.2304 169.792C39.8924 170.008 39.4937 170.117 39.0344 170.117ZM39.2034 169.324C39.7234 169.324 40.148 169.146 40.4774 168.791C40.8067 168.427 40.9714 167.967 40.9714 167.413V167.023H40.5684C39.8664 167.023 39.3117 167.057 38.9044 167.127C38.5057 167.187 38.224 167.3 38.0594 167.465C37.9034 167.621 37.8254 167.837 37.8254 168.115C37.8254 168.47 37.9467 168.76 38.1894 168.986C38.4407 169.211 38.7787 169.324 39.2034 169.324ZM46.6169 170.117C45.9843 170.117 45.4383 169.982 44.9789 169.714C44.5196 169.436 44.1643 169.051 43.9129 168.557C43.6703 168.054 43.5489 167.469 43.5489 166.802C43.5489 165.796 43.8219 165.008 44.3679 164.436C44.9139 163.855 45.6636 163.565 46.6169 163.565C47.0069 163.565 47.3926 163.634 47.7739 163.773C48.1553 163.911 48.4716 164.106 48.7229 164.358L48.3589 165.125C48.1076 164.882 47.8303 164.704 47.5269 164.592C47.2323 164.479 46.9506 164.423 46.6819 164.423C46.0233 164.423 45.5163 164.631 45.1609 165.047C44.8056 165.454 44.6279 166.043 44.6279 166.815C44.6279 167.569 44.8056 168.167 45.1609 168.609C45.5163 169.042 46.0233 169.259 46.6819 169.259C46.9506 169.259 47.2323 169.202 47.5269 169.09C47.8303 168.977 48.1076 168.795 48.3589 168.544L48.7229 169.311C48.4716 169.562 48.1509 169.761 47.7609 169.909C47.3796 170.047 46.9983 170.117 46.6169 170.117ZM49.8265 162.109V160.926H51.1265V162.109H49.8265ZM49.9565 170V163.682H51.0095V170H49.9565ZM52.978 170V163.682H54.005V164.761C54.213 164.362 54.5077 164.063 54.889 163.864C55.2703 163.664 55.6993 163.565 56.176 163.565C57.6753 163.565 58.425 164.397 58.425 166.061V170H57.372V166.126C57.372 165.536 57.255 165.107 57.021 164.839C56.7957 164.561 56.4317 164.423 55.929 164.423C55.3483 164.423 54.8847 164.605 54.538 164.969C54.2 165.324 54.031 165.801 54.031 166.399V170H52.978ZM63.1617 172.457C62.6157 172.457 62.1 172.383 61.6147 172.236C61.138 172.097 60.7133 171.885 60.3407 171.599L60.6917 170.832C61.0817 171.109 61.4673 171.308 61.8487 171.43C62.2387 171.551 62.659 171.612 63.1097 171.612C64.3577 171.612 64.9817 170.97 64.9817 169.688V168.57C64.7997 168.968 64.5137 169.285 64.1237 169.519C63.7423 169.744 63.3047 169.857 62.8107 169.857C62.23 169.857 61.7273 169.722 61.3027 169.454C60.878 169.185 60.5487 168.817 60.3147 168.349C60.0893 167.872 59.9767 167.322 59.9767 166.698C59.9767 166.074 60.0893 165.528 60.3147 165.06C60.5487 164.583 60.878 164.215 61.3027 163.955C61.7273 163.695 62.23 163.565 62.8107 163.565C63.3047 163.565 63.7423 163.677 64.1237 163.903C64.5137 164.128 64.7997 164.436 64.9817 164.826V163.682H66.0087V169.545C66.0087 170.515 65.766 171.243 65.2807 171.729C64.804 172.214 64.0977 172.457 63.1617 172.457ZM63.0057 168.999C63.6123 168.999 64.0933 168.791 64.4487 168.375C64.804 167.959 64.9817 167.4 64.9817 166.698C64.9817 165.996 64.804 165.441 64.4487 165.034C64.0933 164.618 63.6123 164.41 63.0057 164.41C62.4077 164.41 61.931 164.618 61.5757 165.034C61.2203 165.441 61.0427 165.996 61.0427 166.698C61.0427 167.4 61.2203 167.959 61.5757 168.375C61.931 168.791 62.4077 168.999 63.0057 168.999ZM73.7277 170.117C73.1644 170.117 72.6704 169.982 72.2457 169.714C71.8297 169.445 71.5047 169.068 71.2707 168.583C71.0454 168.089 70.9327 167.508 70.9327 166.841C70.9327 166.165 71.0454 165.584 71.2707 165.099C71.5047 164.605 71.8297 164.228 72.2457 163.968C72.6704 163.699 73.1644 163.565 73.7277 163.565C74.2217 163.565 74.6551 163.673 75.0277 163.89C75.4091 164.106 75.6907 164.405 75.8727 164.787V160.835H76.9257V170H75.8987V168.843C75.7167 169.241 75.4351 169.553 75.0537 169.779C74.6724 170.004 74.2304 170.117 73.7277 170.117ZM73.9487 169.272C74.5381 169.272 75.0104 169.064 75.3657 168.648C75.7211 168.223 75.8987 167.621 75.8987 166.841C75.8987 166.052 75.7211 165.45 75.3657 165.034C75.0104 164.618 74.5381 164.41 73.9487 164.41C73.3507 164.41 72.8741 164.618 72.5187 165.034C72.1721 165.45 71.9987 166.052 71.9987 166.841C71.9987 167.621 72.1721 168.223 72.5187 168.648C72.8741 169.064 73.3507 169.272 73.9487 169.272ZM81.5278 170.117C80.9125 170.117 80.3795 169.982 79.9288 169.714C79.4782 169.445 79.1272 169.068 78.8758 168.583C78.6332 168.089 78.5118 167.508 78.5118 166.841C78.5118 166.173 78.6332 165.597 78.8758 165.112C79.1272 164.618 79.4782 164.236 79.9288 163.968C80.3795 163.699 80.9125 163.565 81.5278 163.565C82.1345 163.565 82.6632 163.699 83.1138 163.968C83.5732 164.236 83.9242 164.618 84.1668 165.112C84.4182 165.597 84.5438 166.173 84.5438 166.841C84.5438 167.508 84.4182 168.089 84.1668 168.583C83.9242 169.068 83.5732 169.445 83.1138 169.714C82.6632 169.982 82.1345 170.117 81.5278 170.117ZM81.5278 169.272C82.1172 169.272 82.5895 169.064 82.9448 168.648C83.3002 168.223 83.4778 167.621 83.4778 166.841C83.4778 166.052 83.3002 165.45 82.9448 165.034C82.5895 164.618 82.1172 164.41 81.5278 164.41C80.9298 164.41 80.4532 164.618 80.0978 165.034C79.7512 165.45 79.5778 166.052 79.5778 166.841C79.5778 167.621 79.7512 168.223 80.0978 168.648C80.4532 169.064 80.9298 169.272 81.5278 169.272ZM88.7515 170.117C88.1361 170.117 87.6031 169.982 87.1525 169.714C86.7018 169.445 86.3508 169.068 86.0995 168.583C85.8568 168.089 85.7355 167.508 85.7355 166.841C85.7355 166.173 85.8568 165.597 86.0995 165.112C86.3508 164.618 86.7018 164.236 87.1525 163.968C87.6031 163.699 88.1361 163.565 88.7515 163.565C89.3581 163.565 89.8868 163.699 90.3375 163.968C90.7968 164.236 91.1478 164.618 91.3905 165.112C91.6418 165.597 91.7675 166.173 91.7675 166.841C91.7675 167.508 91.6418 168.089 91.3905 168.583C91.1478 169.068 90.7968 169.445 90.3375 169.714C89.8868 169.982 89.3581 170.117 88.7515 170.117ZM88.7515 169.272C89.3408 169.272 89.8131 169.064 90.1685 168.648C90.5238 168.223 90.7015 167.621 90.7015 166.841C90.7015 166.052 90.5238 165.45 90.1685 165.034C89.8131 164.618 89.3408 164.41 88.7515 164.41C88.1535 164.41 87.6768 164.618 87.3215 165.034C86.9748 165.45 86.8015 166.052 86.8015 166.841C86.8015 167.621 86.9748 168.223 87.3215 168.648C87.6768 169.064 88.1535 169.272 88.7515 169.272ZM93.3491 170V163.682H94.3761V164.813C94.7141 164.05 95.4074 163.63 96.4561 163.552L96.8331 163.513L96.9111 164.423L96.2481 164.501C95.6501 164.553 95.1951 164.743 94.8831 165.073C94.5711 165.393 94.4151 165.835 94.4151 166.399V170H93.3491ZM100.077 170.117C99.5828 170.117 99.1148 170.047 98.6728 169.909C98.2308 169.77 97.8668 169.575 97.5808 169.324L97.9188 168.583C98.2308 168.834 98.5731 169.02 98.9458 169.142C99.3271 169.254 99.7128 169.311 100.103 169.311C100.597 169.311 100.969 169.22 101.221 169.038C101.472 168.856 101.598 168.609 101.598 168.297C101.598 168.054 101.515 167.863 101.351 167.725C101.186 167.577 100.926 167.465 100.571 167.387L99.3878 167.127C98.3131 166.893 97.7758 166.338 97.7758 165.463C97.7758 164.891 98.0011 164.431 98.4518 164.085C98.9111 163.738 99.5091 163.565 100.246 163.565C100.679 163.565 101.091 163.634 101.481 163.773C101.879 163.903 102.209 164.098 102.469 164.358L102.118 165.099C101.866 164.865 101.572 164.687 101.234 164.566C100.904 164.436 100.575 164.371 100.246 164.371C99.7605 164.371 99.3921 164.466 99.1408 164.657C98.8895 164.847 98.7638 165.099 98.7638 165.411C98.7638 165.896 99.0845 166.208 99.7258 166.347L100.909 166.594C101.463 166.715 101.884 166.91 102.17 167.179C102.456 167.439 102.599 167.794 102.599 168.245C102.599 168.825 102.369 169.285 101.91 169.623C101.45 169.952 100.839 170.117 100.077 170.117Z" fill="#959595"/>
</svg>
